<svg id="Layer_1" data-name="Layer 1" xmlns="http://www.w3.org/2000/svg" xmlns:xlink="http://www.w3.org/1999/xlink" viewBox="0 0 194.11 236.53"><defs><style>.cls-1{fill:url(#radial-gradient);}.cls-2{fill:url(#radial-gradient-2);}.cls-3{fill:url(#radial-gradient-3);}.cls-4{fill:url(#radial-gradient-4);}.cls-5{fill:url(#radial-gradient-5);}.cls-6{fill:url(#radial-gradient-6);}.cls-7{fill:#e53618;}.cls-8{fill:#fce8e5;}.cls-12,.cls-9{fill:#5a314e;}.cls-10{fill:#e83c8a;}.cls-11,.cls-13{fill:#c01718;}.cls-12{opacity:0.2;}.cls-13,.cls-14{opacity:0.1;}.cls-14{fill:#b68f89;}</style><radialGradient id="radial-gradient" cx="304.89" cy="301.54" fx="297.1822335149138" r="7.85" gradientTransform="translate(32.74 -70.54) rotate(16.89)" gradientUnits="userSpaceOnUse"><stop offset="0" stop-color="#fbc54f"/><stop offset="0.7" stop-color="#fbc54f"/><stop offset="0.73" stop-color="#fac24b"/><stop offset="0.87" stop-color="#f9b83e"/><stop offset="1" stop-color="#f8b539"/></radialGradient><radialGradient id="radial-gradient-2" cx="278.39" cy="209.61" fx="271.40563669266567" r="7.11" gradientTransform="translate(-40.48 28.75) rotate(-7.81)" xlink:href="#radial-gradient"/><radialGradient id="radial-gradient-3" cx="199.46" cy="322.03" fx="199.45913700242818" r="1.47" gradientTransform="matrix(1, 0, 0, 1, 0, 0)" xlink:href="#radial-gradient"/><radialGradient id="radial-gradient-4" cx="213.1" cy="207.97" fx="213.1021101287588" r="1.47" gradientTransform="matrix(1, 0, 0, 1, 0, 0)" xlink:href="#radial-gradient"/><radialGradient id="radial-gradient-5" cx="275.58" cy="279.65" fx="275.57961893013635" r="1.47" gradientTransform="matrix(1, 0, 0, 1, 0, 0)" xlink:href="#radial-gradient"/><radialGradient id="radial-gradient-6" cx="179.39" cy="263.67" fx="168.35468333831398" r="11.24" gradientTransform="matrix(1, 0, 0, 1, 0, 0)" xlink:href="#radial-gradient"/></defs><title>hudicek (pintar)</title><path class="cls-1" d="M233.93,305.4c-1-.64-2.07-.77-2.57-.31,0,0-.35.32-.29.63.11.49,1.05.52,1.78.85,1.51.7,2,2.66,2.14,3.19a18.69,18.69,0,0,1,.08,5.64.52.52,0,0,0,0,.32.59.59,0,0,0,.53.32c.48,0,.75-1.2.83-1.6.33-1.43,0-1.7.22-2.88a3.7,3.7,0,0,1,1.29-2.37,4,4,0,0,1,2.06-.6,5.31,5.31,0,0,0,1.75-.09c.29-.09.72-.22.79-.52s-.28-.6-.41-.72c-.61-.53-1.15-.37-1.92-.7a3.7,3.7,0,0,1-1.4-1.18,4.09,4.09,0,0,1-.53-2.7,15.72,15.72,0,0,1,.75-3.51c.24-.75.48-1.35.2-1.66a.91.91,0,0,0-.91-.12c-.57.19-.76.92-1,2.11a23.6,23.6,0,0,1-1.17,4.69c-.38.87-.74,1.34-1.25,1.44A1.45,1.45,0,0,1,233.93,305.4Z" transform="translate(-115.63 -91.76)"/><path class="cls-2" d="M261,198.71c-1.09-.13-2,.15-2.23.71,0,0-.16.4,0,.63s1.06,0,1.78,0a4.27,4.27,0,0,1,3,1.82,16.63,16.63,0,0,1,2.19,4.6.47.47,0,0,0,.15.26.53.53,0,0,0,.55.06c.38-.21.16-1.27.08-1.63-.28-1.3-.67-1.39-.91-2.45a3.36,3.36,0,0,1,.16-2.44,3.59,3.59,0,0,1,1.47-1.27,4.69,4.69,0,0,0,1.41-.74c.2-.18.5-.45.45-.72s-.46-.39-.61-.44c-.71-.21-1.09.13-1.85.15a3.28,3.28,0,0,1-1.59-.44,3.7,3.7,0,0,1-1.46-2,14.27,14.27,0,0,1-.71-3.17c-.09-.71-.11-1.29-.47-1.44a.85.85,0,0,0-.79.24c-.39.38-.27,1.05,0,2.12a21.25,21.25,0,0,1,.81,4.3c0,.86-.1,1.39-.48,1.66A1.26,1.26,0,0,1,261,198.71Z" transform="translate(-115.63 -91.76)"/><path class="cls-3" d="M198,321.63a1.49,1.49,0,0,0,.14,1.19,1.57,1.57,0,0,0,1.93.45,1.51,1.51,0,0,0,.9-1.64,1.42,1.42,0,0,0-.9-.87,1.62,1.62,0,0,0-1.4.08A1.44,1.44,0,0,0,198,321.63Z" transform="translate(-115.63 -91.76)"/><path class="cls-4" d="M211.64,207.57a1.43,1.43,0,0,0,.13,1.19,1.56,1.56,0,0,0,1.93.45,1.51,1.51,0,0,0,.9-1.64,1.45,1.45,0,0,0-.9-.87,1.66,1.66,0,0,0-1.4.08A1.44,1.44,0,0,0,211.64,207.57Z" transform="translate(-115.63 -91.76)"/><path class="cls-5" d="M274.11,279.25a1.49,1.49,0,0,0,.14,1.19,1.55,1.55,0,0,0,1.93.45,1.51,1.51,0,0,0,.9-1.64,1.42,1.42,0,0,0-.9-.87,1.66,1.66,0,0,0-1.4.08A1.44,1.44,0,0,0,274.11,279.25Z" transform="translate(-115.63 -91.76)"/><path class="cls-6" d="M174.88,263.27c-1.7-.44-3.15-.19-3.65.64a1.11,1.11,0,0,0-.13,1c.34.63,1.65.28,2.79.43,2.35.32,3.85,2.81,4.25,3.48a26.32,26.32,0,0,1,2.45,7.69.71.71,0,0,0,.17.43.85.85,0,0,0,.86.21c.64-.25.51-1.95.47-2.53-.15-2.1-.75-2.32-.9-4a5.33,5.33,0,0,1,.77-3.78,5.68,5.68,0,0,1,2.58-1.67,7.72,7.72,0,0,0,2.36-.86c.36-.24.9-.6.86-1s-.63-.72-.86-.82c-1.05-.48-1.72,0-2.92-.17a5.28,5.28,0,0,1-2.4-1,5.85,5.85,0,0,1-1.85-3.48,21.53,21.53,0,0,1-.43-5.11c0-1.13.1-2.06-.43-2.36a1.31,1.31,0,0,0-1.29.21c-.7.5-.65,1.58-.51,3.31.26,3.39.6,4.77.34,6.91-.16,1.35-.46,2.15-1.12,2.49A1.9,1.9,0,0,1,174.88,263.27Z" transform="translate(-115.63 -91.76)"/><path class="cls-7" d="M142,153.9c-2-1.48-4.74-3.48-8.18-5.67-8.06-5.16-12.15-7.71-14.73-6.44s-3,5.69-3.38,12.33a70,70,0,0,0,1.09,17.13,80.09,80.09,0,0,0,16.69,46.48A100.28,100.28,0,0,0,131.26,271a92.4,92.4,0,0,0,13.07,23.85,66.34,66.34,0,0,0,4.4,5.29A111,111,0,0,0,164,314.07c8.94,6.46,28.41,14.66,51.8,13.91,19.83-.64,36.85-7.53,45.62-13.86a109.49,109.49,0,0,0,15.24-13.92c1.47-1.61,2.91-3.34,4.4-5.28a95.93,95.93,0,0,0,13.31-23.79,103.19,103.19,0,0,0-2.51-53.35,80.09,80.09,0,0,0,16.69-46.48,70,70,0,0,0,1.09-17.13c-.39-6.64-.71-11-3.38-12.32s-6.67,1.28-14.73,6.43c-3.44,2.2-6.21,4.2-8.18,5.68a255.8,255.8,0,0,1-66.88,9.92A255.65,255.65,0,0,1,142,153.9Z" transform="translate(-115.63 -91.76)"/><path class="cls-8" d="M192.52,280.17c-6.52,3.58-14.37,3.71-21.75,2.85a93.44,93.44,0,0,1-13.69-2.63,28.3,28.3,0,0,1-6.39-2.41c-6.47-3.64-9.78-11.54-9.28-19s4.25-14.26,9.1-19.88l.11-.08,7.38,3.18,9.59,6.48,11.55,2.62,1.89.81,4.24,3.69,7.75,1.47,9,3.88C204.29,268.28,199,276.58,192.52,280.17Z" transform="translate(-115.63 -91.76)"/><path class="cls-9" d="M188.51,270.06c-3.65,2.65-8.52,2.74-13,2.32a39.48,39.48,0,0,1-14.17-3.62,16.13,16.13,0,0,1-5.46-4.18c-2.75-3.45-3.31-8.26-2.35-12.56.68-3.06,2.06-7.13,4.48-9.77l21.14,9.1a44.2,44.2,0,0,1-2.56,5.33c1.58-1.57,3-3,4.45-4.51l12,5.15C193.86,262.05,192.36,267.25,188.51,270.06Z" transform="translate(-115.63 -91.76)"/><path class="cls-8" d="M233.18,279.92c6.52,3.59,14.37,3.71,21.75,2.86a95.07,95.07,0,0,0,13.69-2.64,28.3,28.3,0,0,0,6.39-2.41c6.47-3.64,9.78-11.54,9.28-19s-4.25-14.26-9.1-19.88l-.11-.08L267.7,242l-9.25,5.64-11.89,3.46-1.89.81-5.35,3.94-6.64,1.23-9,3.87C221.4,268,226.68,276.33,233.18,279.92Z" transform="translate(-115.63 -91.76)"/><path class="cls-9" d="M237.18,269.81c3.65,2.65,8.53,2.74,13,2.33a39.59,39.59,0,0,0,14.16-3.63,16,16,0,0,0,5.46-4.18c2.76-3.45,3.31-8.26,2.36-12.56-.68-3.06-2.06-7.13-4.48-9.77l-21.14,9.1a44.2,44.2,0,0,0,2.56,5.33c-1.58-1.56-3-3-4.45-4.51l-12,5.16C231.84,261.8,233.34,267,237.18,269.81Z" transform="translate(-115.63 -91.76)"/><path class="cls-9" d="M214.23,288.94a9.91,9.91,0,0,1-7.35-3.29,1,1,0,0,1,1.47-1.28,7.72,7.72,0,0,0,13-2.17,1,1,0,0,1,1.27-.54,1,1,0,0,1,.53,1.27,9.85,9.85,0,0,1-7.35,5.88A9.64,9.64,0,0,1,214.23,288.94Z" transform="translate(-115.63 -91.76)"/><path class="cls-10" d="M212,282.72" transform="translate(-115.63 -91.76)"/><path class="cls-11" d="M133.56,217.78" transform="translate(-115.63 -91.76)"/><path class="cls-12" d="M129.77,237.93a165,165,0,0,0,4.17,28.35c3.76,14.78,28.1,41.17,62.84,49.42,29.71,7.06,59.35-1,59.66,1.43.05.47-2.15,1.41-6.55,3.29a115,115,0,0,1-14.24,5.06c-24.49,6.48-47.73-.27-47.73-.27a80.54,80.54,0,0,1-33.4-19,95.72,95.72,0,0,1-11-12.68,87.65,87.65,0,0,1-8.71-13.38,46.46,46.46,0,0,1-2.82-6.46,49.2,49.2,0,0,1-1.93-7.53A87,87,0,0,1,128.74,253c-.31-10,.51-19.15.81-19.15A35,35,0,0,1,129.77,237.93Z" transform="translate(-115.63 -91.76)"/><path class="cls-13" d="M138.3,239.66c-1.17-1-3.44-.28-4.58,1-.79.87-1.51,2.49-.82,3.6.83,1.32,3.38,1.41,4.83.16S139.46,240.7,138.3,239.66Z" transform="translate(-115.63 -91.76)"/><path class="cls-13" d="M136.74,252.24c-1.17-1-3.44-.29-4.59,1-.79.87-1.5,2.5-.81,3.6.82,1.33,3.38,1.41,4.82.16S137.9,253.28,136.74,252.24Z" transform="translate(-115.63 -91.76)"/><path class="cls-13" d="M135.64,229.66c-1.41.35-1.6,2.38-.89,3.84.48,1,1.69,2.31,3,2.34,1.53,0,2.61-1.8,2-3.47S137,229.3,135.64,229.66Z" transform="translate(-115.63 -91.76)"/><path class="cls-13" d="M137.65,262.62c-1.16-1-3.43-.28-4.58,1-.79.88-1.51,2.5-.82,3.6.83,1.33,3.39,1.41,4.83.17S138.82,263.66,137.65,262.62Z" transform="translate(-115.63 -91.76)"/><path class="cls-13" d="M140.17,272.76c-.41-1.09-2.18-1.38-3.39-.94-.82.3-1.87,1.13-1.79,2.1.08,1.17,1.75,2.12,3.14,1.79S140.58,273.86,140.17,272.76Z" transform="translate(-115.63 -91.76)"/><path class="cls-13" d="M144.62,278.63c-.18-1.36-2.11-2-3.6-1.62-1,.24-2.43,1.08-2.6,2.25-.22,1.4,1.43,2.78,3.1,2.59S144.8,280,144.62,278.63Z" transform="translate(-115.63 -91.76)"/><path class="cls-13" d="M150.06,289.63c-.16-1.36-2-1.75-3.49-1.23-1,.37-2.37,1.37-2.54,2.58-.22,1.45,1.38,2.64,3,2.26S150.23,291,150.06,289.63Z" transform="translate(-115.63 -91.76)"/><path class="cls-13" d="M143.36,283.39c-1-.72-2.58.22-3.24,1.44a3.08,3.08,0,0,0-.06,3.12c.82,1,2.72.73,3.6-.51S144.38,284.1,143.36,283.39Z" transform="translate(-115.63 -91.76)"/><path class="cls-13" d="M168,294.57c-1.07-.85-2.68.2-3.34,1.59a4,4,0,0,0,0,3.62c.87,1.18,2.85.91,3.73-.51S169.1,295.42,168,294.57Z" transform="translate(-115.63 -91.76)"/><path class="cls-13" d="M158.67,297.8c-.79-.61-2,.16-2.47,1.17a2.8,2.8,0,0,0,0,2.61,1.73,1.73,0,0,0,2.75-.38A2.89,2.89,0,0,0,158.67,297.8Z" transform="translate(-115.63 -91.76)"/><path class="cls-13" d="M160.61,303c-1.24-.14-2.17,1.43-2.16,2.81a3.11,3.11,0,0,0,1.44,2.78c1.2.49,2.74-.67,2.92-2.17S161.84,303.18,160.61,303Z" transform="translate(-115.63 -91.76)"/><path class="cls-13" d="M168.88,303.22c-1.14-.49-2.48.74-2.88,2.07a3.1,3.1,0,0,0,.58,3.07c1,.82,2.81.16,3.42-1.23S170,303.71,168.88,303.22Z" transform="translate(-115.63 -91.76)"/><path class="cls-13" d="M157.27,286.68c-.61-.76-2-.4-2.74.37a2.41,2.41,0,0,0-.72,2.33,1.87,1.87,0,0,0,2.8.4C157.52,289.05,157.88,287.43,157.27,286.68Z" transform="translate(-115.63 -91.76)"/><path class="cls-13" d="M173,310c-1.08-.63-2.56.45-3.11,1.72a3.11,3.11,0,0,0,.22,3.12c.9.92,2.78.48,3.54-.83S174,310.66,173,310Z" transform="translate(-115.63 -91.76)"/><path class="cls-13" d="M178.32,312.63c-1.44.16-2.29,2.2-2.09,3.78.14,1.09.86,2.6,2.06,2.82,1.44.25,3.06-1.47,3.05-3.24S179.77,312.47,178.32,312.63Z" transform="translate(-115.63 -91.76)"/><path class="cls-13" d="M158.89,197.12c-.22-1.24-2-1.84-3.39-1.57-.93.19-2.2.91-2.32,2-.14,1.27,1.44,2.56,3,2.44S159.11,198.36,158.89,197.12Z" transform="translate(-115.63 -91.76)"/><path class="cls-13" d="M176.81,200.53c.33-1.53-1.33-3.39-2.92-4-1.09-.4-2.78-.44-3.39.66-.73,1.33.37,3.8,2.07,4.68S176.47,202.06,176.81,200.53Z" transform="translate(-115.63 -91.76)"/><path class="cls-13" d="M191.91,204.81c.34-1.53-1.33-3.4-2.92-4-1.09-.41-2.78-.44-3.39.66-.73,1.32.37,3.8,2.08,4.67S191.57,206.34,191.91,204.81Z" transform="translate(-115.63 -91.76)"/><path class="cls-13" d="M203.4,216.5c.85-1.29.13-3.72-1-4.93-.77-.83-2.18-1.57-3.1-.79-1.11.93-1.1,3.7,0,5.23S202.55,217.79,203.4,216.5Z" transform="translate(-115.63 -91.76)"/><path class="cls-13" d="M202.24,203.81c.39-1.5-1.07-3.57-2.52-4.36-1-.54-2.57-.78-3.2.25-.75,1.24.16,3.86,1.7,5S201.85,205.3,202.24,203.81Z" transform="translate(-115.63 -91.76)"/><path class="cls-13" d="M197.23,193.11c.39-1.49-1.07-3.57-2.52-4.35-1-.54-2.58-.78-3.2.25-.75,1.24.15,3.85,1.7,4.94S196.84,194.6,197.23,193.11Z" transform="translate(-115.63 -91.76)"/><path class="cls-13" d="M187.37,193.7c.39-1.49-1.08-3.57-2.53-4.35-1-.54-2.57-.78-3.19.25-.75,1.24.15,3.86,1.7,4.94S187,195.2,187.37,193.7Z" transform="translate(-115.63 -91.76)"/><path class="cls-13" d="M206.57,193.59c.18-1.42-1.13-3.55-2.33-4.43-.82-.6-2.07-1-2.47,0-.48,1.14.44,3.75,1.73,4.93S206.39,195,206.57,193.59Z" transform="translate(-115.63 -91.76)"/><path class="cls-13" d="M184.82,181.1c-.27-1.43-2.24-3-3.71-3.37-1-.27-2.36-.15-2.46.91-.12,1.27,1.61,3.43,3.27,4.08S185.08,182.52,184.82,181.1Z" transform="translate(-115.63 -91.76)"/><path class="cls-13" d="M192.46,173.69c-.26-1.42-2.24-3-3.7-3.37-1-.27-2.36-.15-2.46.91-.13,1.27,1.61,3.43,3.27,4.08S192.73,175.11,192.46,173.69Z" transform="translate(-115.63 -91.76)"/><path class="cls-13" d="M178.09,191.67c-.39-1.4-2.5-2.76-4-3-1-.18-2.37.06-2.37,1.13,0,1.27,1.92,3.27,3.63,3.76S178.49,193.06,178.09,191.67Z" transform="translate(-115.63 -91.76)"/><path class="cls-13" d="M212.66,225.48c1.22-1,1.3-3.5.62-5-.48-1-1.59-2.17-2.7-1.73-1.35.54-2.21,3.17-1.63,5S211.45,226.43,212.66,225.48Z" transform="translate(-115.63 -91.76)"/><path class="cls-13" d="M212.73,212c1.22-1,1.3-3.5.61-5-.47-1-1.58-2.17-2.69-1.73-1.35.54-2.21,3.17-1.63,5S211.52,213,212.73,212Z" transform="translate(-115.63 -91.76)"/><path class="cls-13" d="M213.8,198c1.07-1.51.79-4.72-.1-6.43-.62-1.17-1.88-2.32-2.93-1.48-1.26,1-1.74,4.53-.91,6.65S212.73,199.45,213.8,198Z" transform="translate(-115.63 -91.76)"/><path class="cls-13" d="M213.87,185.24c1.07-1.51.79-4.72-.1-6.42-.62-1.18-1.88-2.33-2.93-1.49-1.26,1-1.74,4.54-.92,6.65S212.8,186.74,213.87,185.24Z" transform="translate(-115.63 -91.76)"/><path class="cls-13" d="M154.51,294.5c-.73-1.17-2.59-.73-3.69.36a3.92,3.92,0,0,0-1.22,3.4c.41,1.41,2.36,1.82,3.68.79S155.23,295.66,154.51,294.5Z" transform="translate(-115.63 -91.76)"/><path class="cls-13" d="M160.37,292c-.91-.32-1.9.7-2.14,1.75a2.4,2.4,0,0,0,.59,2.36,1.86,1.86,0,0,0,2.6-1.12A2.51,2.51,0,0,0,160.37,292Z" transform="translate(-115.63 -91.76)"/><path class="cls-13" d="M151.47,282.78c-.61-.75-2-.39-2.74.38a2.41,2.41,0,0,0-.72,2.33,1.87,1.87,0,0,0,2.8.39A2.51,2.51,0,0,0,151.47,282.78Z" transform="translate(-115.63 -91.76)"/><path class="cls-13" d="M176.54,303.57c-1.24.16-1.77,1.9-1.44,3.24.23.93,1,2.2,2.06,2.36,1.27.2,2.5-1.28,2.32-2.79S177.78,303.42,176.54,303.57Z" transform="translate(-115.63 -91.76)"/><path class="cls-13" d="M183.91,318.09c-1,.71-.69,2.5.22,3.54a3.07,3.07,0,0,0,2.91,1.15c1.22-.41,1.63-2.3.78-3.55S184.94,317.38,183.91,318.09Z" transform="translate(-115.63 -91.76)"/><path class="cls-13" d="M214.83,236.19c1.21-1,1.29-3.5.61-5-.47-1-1.58-2.17-2.7-1.73-1.35.54-2.2,3.17-1.63,5S213.62,237.14,214.83,236.19Z" transform="translate(-115.63 -91.76)"/><path class="cls-13" d="M205.76,228.38c-.2-1.53-2.33-2.9-4-3.08-1.13-.13-2.68.24-2.87,1.43-.23,1.43,1.59,3.51,3.43,3.94S206,229.91,205.76,228.38Z" transform="translate(-115.63 -91.76)"/><path class="cls-13" d="M195.83,220.41c.16-1.54-1.61-3.36-3.17-3.91-1.07-.38-2.66-.38-3.11.74-.55,1.33.74,3.78,2.44,4.62S195.67,221.94,195.83,220.41Z" transform="translate(-115.63 -91.76)"/><path class="cls-13" d="M186.92,211.4c-.82-2.17-4.43-3.44-6.89-3.13-1.7.22-3.83,1.3-3.7,3.1.17,2.17,3.56,4.59,6.4,4.57S187.75,213.57,186.92,211.4Z" transform="translate(-115.63 -91.76)"/><path class="cls-13" d="M214,245.82c1.22-.95,1.3-3.49.61-5-.47-1-1.58-2.17-2.69-1.73-1.35.54-2.21,3.17-1.63,5S212.76,246.78,214,245.82Z" transform="translate(-115.63 -91.76)"/><path class="cls-13" d="M205.79,238.14c-.32-1.51-2.56-2.71-4.21-2.75-1.14,0-2.65.46-2.74,1.66-.12,1.44,1.87,3.37,3.74,3.65S206.11,239.65,205.79,238.14Z" transform="translate(-115.63 -91.76)"/><path class="cls-13" d="M196.19,230.54c-.63-1.41-3.07-2.11-4.69-1.82-1.12.21-2.49,1-2.34,2.2.19,1.43,2.54,2.91,4.43,2.79S196.82,231.94,196.19,230.54Z" transform="translate(-115.63 -91.76)"/><path class="cls-13" d="M186.08,223.69c-.8-1.88-4-2.77-6.16-2.33-1.48.3-3.31,1.4-3.13,3,.22,1.93,3.29,3.86,5.78,3.66S186.88,225.56,186.08,223.69Z" transform="translate(-115.63 -91.76)"/><path class="cls-13" d="M176.17,217c-.81-1.88-4-2.77-6.16-2.33-1.48.3-3.31,1.4-3.13,3,.22,1.93,3.29,3.86,5.78,3.66S177,218.85,176.17,217Z" transform="translate(-115.63 -91.76)"/><path class="cls-13" d="M171.75,206.92c-.8-1.88-4-2.77-6.16-2.33-1.47.3-3.31,1.4-3.13,3,.23,1.92,3.29,3.85,5.78,3.65S172.55,208.8,171.75,206.92Z" transform="translate(-115.63 -91.76)"/><path class="cls-13" d="M162.69,213c-.8-1.88-4-2.77-6.15-2.33-1.48.3-3.31,1.4-3.13,3,.22,1.92,3.28,3.85,5.77,3.65S163.49,214.84,162.69,213Z" transform="translate(-115.63 -91.76)"/><path class="cls-13" d="M158.26,206c-.11-1.43-2.09-2.53-3.66-2.54-1.07,0-2.58.49-2.83,1.64-.3,1.39,1.34,3.19,3.08,3.42S158.37,207.41,158.26,206Z" transform="translate(-115.63 -91.76)"/><path class="cls-13" d="M213.94,256.06c1.45-1.14,1.55-4.2.73-6-.57-1.24-1.9-2.62-3.25-2.08-1.61.64-2.65,3.81-1.95,6S212.48,257.21,213.94,256.06Z" transform="translate(-115.63 -91.76)"/><path class="cls-13" d="M207.42,246.05c-.56-1.13-2.57-1.63-3.89-1.35-.9.2-2,.89-1.84,1.86.19,1.17,2.15,2.31,3.69,2.16S208,247.19,207.42,246.05Z" transform="translate(-115.63 -91.76)"/><path class="cls-13" d="M206.23,256.88c1.06-1.42-.17-3.74-1.85-4.77-1.15-.71-3.19-1.21-4.39-.29-1.45,1.12-1.17,3.88.53,5.23S205.18,258.31,206.23,256.88Z" transform="translate(-115.63 -91.76)"/><path class="cls-13" d="M198.4,247.26c1-1.42-.18-3.74-1.86-4.77-1.15-.71-3.18-1.21-4.39-.29-1.45,1.12-1.16,3.88.53,5.23S197.34,248.69,198.4,247.26Z" transform="translate(-115.63 -91.76)"/><path class="cls-13" d="M191.25,237.44c0-1.78-2.31-3-4.27-2.83-1.35.09-3.3.85-3.75,2.3-.55,1.75,1.29,3.84,3.45,4S191.21,239.21,191.25,237.44Z" transform="translate(-115.63 -91.76)"/><path class="cls-13" d="M181,233c0-1.78-2.3-3-4.27-2.83-1.34.09-3.3.85-3.75,2.3-.54,1.74,1.29,3.84,3.45,4S181,234.74,181,233Z" transform="translate(-115.63 -91.76)"/><path class="cls-13" d="M171.53,226.9c.3-2.18-2.25-4.61-4.54-5.26-1.57-.44-3.94-.3-4.67,1.31-.88,1.94.94,5.29,3.43,6.33S171.23,229.08,171.53,226.9Z" transform="translate(-115.63 -91.76)"/><path class="cls-13" d="M195,253.91c.79-1.17-.17-3.1-1.46-4-.88-.59-2.43-1-3.34-.27-1.09.9-.85,3.2.45,4.33S194.22,255.08,195,253.91Z" transform="translate(-115.63 -91.76)"/><path class="cls-13" d="M188.33,247.08c.21-1.63-1.81-3.14-3.6-3.36-1.24-.15-3.08.21-3.63,1.48-.66,1.51.8,3.77,2.75,4.26S188.13,248.72,188.33,247.08Z" transform="translate(-115.63 -91.76)"/><path class="cls-13" d="M178.4,245.59c1-1.34-.1-3.63-1.57-4.68-1-.72-2.81-1.27-3.89-.42-1.31,1-1.09,3.7.39,5.06S177.45,246.93,178.4,245.59Z" transform="translate(-115.63 -91.76)"/><path class="cls-13" d="M170.25,238.57c1.25-.64,1.11-2.67.22-3.95-.61-.87-1.94-1.91-3.12-1.67-1.43.29-2.13,2.31-1.34,3.82S169,239.21,170.25,238.57Z" transform="translate(-115.63 -91.76)"/><path class="cls-13" d="M168.34,243.56c1.18-.42.91-2-.05-3.09a4.42,4.42,0,0,0-3.17-1.51,1.73,1.73,0,0,0-1.05,2.9C164.93,243.08,167.16,244,168.34,243.56Z" transform="translate(-115.63 -91.76)"/><path class="cls-13" d="M160.14,240.17c1.57-.63,1.26-2.88,0-4.35-.84-1-2.61-2.23-4.13-2-1.83.23-2.61,2.42-1.48,4.13S158.58,240.79,160.14,240.17Z" transform="translate(-115.63 -91.76)"/><path class="cls-13" d="M161.27,233.47c1.46.34,1.72-1.36,1-3a7.44,7.44,0,0,0-3-3.44c-1.6-.75-2.76.38-2.2,2.11S159.8,233.13,161.27,233.47Z" transform="translate(-115.63 -91.76)"/><path class="cls-13" d="M142.6,239.69c1,1.37,3.1.53,4.23-1,.78-1.06,1.54-3.08,1-4.51-.65-1.71-3-1.95-4.36-.45S141.62,238.32,142.6,239.69Z" transform="translate(-115.63 -91.76)"/><path class="cls-13" d="M151,235.5c1.35.62,2.16-1,2-2.69a6.32,6.32,0,0,0-1.88-3.95c-1.35-1-2.87-.18-2.88,1.62S149.64,234.88,151,235.5Z" transform="translate(-115.63 -91.76)"/><path class="cls-13" d="M159.17,223.43c.68-1.31-.63-3.07-2.13-3.71-1-.44-2.76-.6-3.63.32-1,1.1-.45,3.35,1.11,4.25S158.5,224.74,159.17,223.43Z" transform="translate(-115.63 -91.76)"/><path class="cls-13" d="M144.3,230.38c1.56-.63,1.26-2.88,0-4.35-.85-1-2.62-2.23-4.14-2-1.83.23-2.61,2.42-1.48,4.13S142.73,231,144.3,230.38Z" transform="translate(-115.63 -91.76)"/><path class="cls-13" d="M150.53,225.31c1-1.08.37-3.26-.71-4.4-.75-.77-2.16-1.51-3.16-.89-1.2.75-1.36,3.19-.31,4.6S149.57,226.39,150.53,225.31Z" transform="translate(-115.63 -91.76)"/><path class="cls-13" d="M143,220.58c.68-1.31-.63-3.08-2.13-3.71-1-.44-2.77-.6-3.63.31-1,1.11-.45,3.36,1.11,4.26S142.29,221.89,143,220.58Z" transform="translate(-115.63 -91.76)"/><path class="cls-13" d="M135.28,227.23c.86.62,1.58-.39,1.65-1.62a4.86,4.86,0,0,0-.87-3c-.81-.91-1.94-.51-2.14.76A5,5,0,0,0,135.28,227.23Z" transform="translate(-115.63 -91.76)"/><path class="cls-13" d="M151.28,215.72c-.11-1.44-2.09-2.54-3.66-2.55-1.08,0-2.59.5-2.83,1.65-.3,1.38,1.33,3.19,3.08,3.42S151.38,217.16,151.28,215.72Z" transform="translate(-115.63 -91.76)"/><path class="cls-13" d="M150.14,210.45c.65-1.16-.32-3-1.53-3.82-.84-.56-2.27-.93-3.05-.17-.94.91-.6,3.14.64,4.21S149.48,211.62,150.14,210.45Z" transform="translate(-115.63 -91.76)"/><path class="cls-13" d="M167.72,200.49c.33-1.53-1.34-3.39-2.92-4-1.09-.4-2.78-.43-3.39.67-.73,1.32.37,3.79,2.07,4.67S167.38,202,167.72,200.49Z" transform="translate(-115.63 -91.76)"/><path class="cls-13" d="M169.47,192.76c-.39-1.4-2.5-2.76-4-3-1-.18-2.37.07-2.37,1.13,0,1.28,1.92,3.27,3.63,3.76S169.87,194.15,169.47,192.76Z" transform="translate(-115.63 -91.76)"/><path class="cls-13" d="M161.07,192c-.39-1.39-2.5-2.76-4-3-1-.17-2.37.07-2.37,1.13,0,1.28,1.92,3.27,3.63,3.76S161.47,193.4,161.07,192Z" transform="translate(-115.63 -91.76)"/><path class="cls-13" d="M170.36,186.23c-.39-1.4-2.5-2.76-4-3-1-.18-2.36.07-2.37,1.13,0,1.28,1.92,3.27,3.63,3.76S170.76,187.62,170.36,186.23Z" transform="translate(-115.63 -91.76)"/><path class="cls-13" d="M177,182.66c-.39-1.39-2.5-2.76-4-3-1-.18-2.36.06-2.37,1.13,0,1.27,1.92,3.26,3.63,3.76S177.43,184.06,177,182.66Z" transform="translate(-115.63 -91.76)"/><path class="cls-13" d="M161.46,186c0-1.45-1.67-3.33-3-4-.94-.45-2.29-.58-2.58.45-.35,1.23,1,3.66,2.48,4.6S161.46,187.45,161.46,186Z" transform="translate(-115.63 -91.76)"/><path class="cls-13" d="M154.82,186.47c0-1.45-1.67-3.33-3-4-.94-.45-2.29-.57-2.58.45-.35,1.23,1,3.66,2.48,4.6S154.82,187.92,154.82,186.47Z" transform="translate(-115.63 -91.76)"/><path class="cls-13" d="M169.23,178.26c.14-1.44-1.34-3.47-2.64-4.25-.9-.53-2.23-.79-2.62.2-.46,1.19.62,3.74,2,4.82S169.1,179.7,169.23,178.26Z" transform="translate(-115.63 -91.76)"/><path class="cls-13" d="M163.78,179.83c.13-1.45-1.34-3.48-2.65-4.26-.89-.53-2.23-.78-2.61.21-.47,1.19.61,3.74,2,4.81S163.64,181.27,163.78,179.83Z" transform="translate(-115.63 -91.76)"/><path class="cls-13" d="M154.51,179.49c-.47-1.31-2.5-2.76-3.88-3.14-.95-.26-2.15-.17-2.06.8.1,1.16,2,3.16,3.61,3.77S155,180.79,154.51,179.49Z" transform="translate(-115.63 -91.76)"/><path class="cls-13" d="M157.1,176.56c.34-1.34-.54-3.68-1.47-4.77-.64-.74-1.69-1.34-2.16-.49-.56,1-.09,3.75.89,5.16S156.76,177.91,157.1,176.56Z" transform="translate(-115.63 -91.76)"/><path class="cls-13" d="M162.1,172.32a5.83,5.83,0,0,0-2.95-3.1c-.78-.34-1.79-.4-1.81.42,0,1,1.38,2.9,2.66,3.61S162.37,173.48,162.1,172.32Z" transform="translate(-115.63 -91.76)"/><path class="cls-13" d="M149.56,173.62c0-1.39-1.38-3.46-2.53-4.3-.8-.58-1.95-.92-2.21,0-.32,1.12.77,3.67,2.05,4.81S149.54,175,149.56,173.62Z" transform="translate(-115.63 -91.76)"/><path class="cls-13" d="M156.15,167.5c.44-1.32-.26-3.71-1.1-4.87-.59-.79-1.58-1.46-2.12-.65-.64,1-.37,3.73.5,5.21S155.71,168.82,156.15,167.5Z" transform="translate(-115.63 -91.76)"/><path class="cls-13" d="M152.44,169.34c0-1.39-1.53-3.39-2.73-4.18-.82-.54-2-.82-2.2.12-.27,1.14.94,3.63,2.27,4.71S152.49,170.73,152.44,169.34Z" transform="translate(-115.63 -91.76)"/><path class="cls-13" d="M146.32,166.61a7.54,7.54,0,0,0-3.22-3.8c-.84-.46-1.94-.64-2,.28,0,1.11,1.53,3.4,2.92,4.34S146.63,167.93,146.32,166.61Z" transform="translate(-115.63 -91.76)"/><path class="cls-13" d="M175.81,177.14a9.45,9.45,0,0,0-3.51-4.39c-.89-.57-2-.85-2,.14,0,1.21,1.73,3.83,3.21,5S176.18,178.6,175.81,177.14Z" transform="translate(-115.63 -91.76)"/><path class="cls-13" d="M147.84,163.29a9.62,9.62,0,0,0-.3-5.61c-.4-1-1.17-1.88-1.74-1.05-.68,1-.81,4.11-.26,5.89S147.29,164.7,147.84,163.29Z" transform="translate(-115.63 -91.76)"/><path class="cls-13" d="M141.1,160.5a10,10,0,0,0-3.13-3.87c-.75-.52-1.68-.82-1.58,0a9.8,9.8,0,0,0,2.94,4.33C140.57,162,141.51,161.75,141.1,160.5Z" transform="translate(-115.63 -91.76)"/><path class="cls-13" d="M144,160.49a7.13,7.13,0,0,0-.67-4.14c-.37-.7-1-1.31-1.36-.65a7,7,0,0,0,.27,4.4C142.72,161.36,143.65,161.58,144,160.49Z" transform="translate(-115.63 -91.76)"/><path class="cls-13" d="M140.74,155a5.61,5.61,0,0,0-2.76-2.45c-.66-.25-1.48-.27-1.4.41a5.36,5.36,0,0,0,2.58,2.88C140.25,156.39,141.09,156,140.74,155Z" transform="translate(-115.63 -91.76)"/><path class="cls-13" d="M136,155.22a5.59,5.59,0,0,0-2.75-2.45c-.67-.25-1.49-.27-1.41.41a5.44,5.44,0,0,0,2.58,2.88C135.51,156.58,136.35,156.16,136,155.22Z" transform="translate(-115.63 -91.76)"/><path class="cls-13" d="M135.86,151.5a5.49,5.49,0,0,0-3.05-2.07c-.68-.16-1.5-.08-1.34.58a5.41,5.41,0,0,0,2.93,2.52C135.56,152.92,136.34,152.39,135.86,151.5Z" transform="translate(-115.63 -91.76)"/><path class="cls-13" d="M131,151.59a8.74,8.74,0,0,0-3.77-2.68c-.82-.26-1.75-.27-1.47.48.33.91,2.29,2.58,3.69,3.16S131.61,152.63,131,151.59Z" transform="translate(-115.63 -91.76)"/><path class="cls-13" d="M130.51,147.8a8.66,8.66,0,0,0-3.77-2.68c-.81-.26-1.74-.27-1.47.48.33.91,2.29,2.57,3.69,3.15S131.17,148.84,130.51,147.8Z" transform="translate(-115.63 -91.76)"/><path class="cls-13" d="M124.58,143.75a6.54,6.54,0,0,0-3.72-1.47c-.76,0-1.58.22-1.23.85a6.4,6.4,0,0,0,3.73,1.94C124.66,145.22,125.31,144.54,124.58,143.75Z" transform="translate(-115.63 -91.76)"/><path class="cls-13" d="M125.53,147.67a3.55,3.55,0,0,0-2.29-1.79c-.58-.12-1.32,0-1.29.57s1.15,1.87,2.11,2.19S125.79,148.45,125.53,147.67Z" transform="translate(-115.63 -91.76)"/><path class="cls-13" d="M121.39,145.6a5.05,5.05,0,0,0-2.21-1.87c-.51-.2-1.11-.23-1,.26a4.93,4.93,0,0,0,2.12,2.18C121.16,146.58,121.73,146.3,121.39,145.6Z" transform="translate(-115.63 -91.76)"/><path class="cls-13" d="M142.21,212.52c.63-2.09-1.82-4.12-4.22-4.48-1.65-.25-4.25.13-5.27,1.73-1.22,1.93.31,4.9,2.87,5.61S141.59,214.61,142.21,212.52Z" transform="translate(-115.63 -91.76)"/><path class="cls-13" d="M143.56,206.18c.94-1.51-.38-3.86-2.05-4.86-1.15-.69-3.14-1.14-4.25-.15-1.34,1.2-.91,4,.8,5.37S142.62,207.68,143.56,206.18Z" transform="translate(-115.63 -91.76)"/><path class="cls-13" d="M151,202.41c.41-1.38-1.05-3.11-2.5-3.68-1-.4-2.6-.47-3.24.52-.78,1.19.11,3.46,1.66,4.29S150.55,203.79,151,202.41Z" transform="translate(-115.63 -91.76)"/><path class="cls-13" d="M151.47,195.31c.75-1.15-.07-3.17-1.22-4.11-.78-.65-2.18-1.18-3-.46-1,.87-.85,3.22.3,4.43S150.73,196.46,151.47,195.31Z" transform="translate(-115.63 -91.76)"/><path class="cls-13" d="M133.27,206c.94-1.51-.38-3.85-2.05-4.86-1.15-.68-3.14-1.14-4.25-.14-1.34,1.19-.91,4,.8,5.36S132.33,207.46,133.27,206Z" transform="translate(-115.63 -91.76)"/><path class="cls-13" d="M143.69,197.92c.94-1.5-.38-3.85-2.05-4.85-1.15-.69-3.14-1.14-4.25-.15-1.34,1.19-.91,4,.8,5.37S142.75,199.42,143.69,197.92Z" transform="translate(-115.63 -91.76)"/><path class="cls-13" d="M147.72,187.85c.71-1.52-.18-4.25-1.36-5.56-.81-.9-2.23-1.64-3.05-.71-1,1.13-.75,4.28.45,5.95S147,189.36,147.72,187.85Z" transform="translate(-115.63 -91.76)"/><path class="cls-13" d="M143.25,190.33c0-1.45-1.66-3.34-3-4-.94-.44-2.3-.57-2.59.45-.35,1.23,1,3.67,2.49,4.6S143.26,191.77,143.25,190.33Z" transform="translate(-115.63 -91.76)"/><path class="cls-13" d="M136.05,199.42c0-1.45-1.66-3.33-3-4-1-.45-2.3-.58-2.59.45-.35,1.23,1,3.66,2.49,4.6S136.06,200.87,136.05,199.42Z" transform="translate(-115.63 -91.76)"/><path class="cls-13" d="M127.89,197.27c0-1.45-1.67-3.33-3-4-.94-.45-2.29-.57-2.58.45-.35,1.23,1,3.67,2.48,4.6S127.89,198.72,127.89,197.27Z" transform="translate(-115.63 -91.76)"/><path class="cls-13" d="M133.43,192.17c.21-1.57-1.61-3.37-3.23-3.87-1.12-.35-2.8-.28-3.32.86-.62,1.39.68,3.83,2.45,4.62S133.23,193.73,133.43,192.17Z" transform="translate(-115.63 -91.76)"/><path class="cls-13" d="M147,177.82c0-1.45-1.66-3.34-3-4-1-.44-2.3-.57-2.59.45-.35,1.23,1,3.67,2.49,4.6S147,179.26,147,177.82Z" transform="translate(-115.63 -91.76)"/><path class="cls-13" d="M136.52,189.31c.15-1.38-1.05-3.57-2.13-4.52-.74-.65-1.85-1.09-2.2-.18-.42,1.09.44,3.72,1.6,5S136.38,190.69,136.52,189.31Z" transform="translate(-115.63 -91.76)"/><path class="cls-13" d="M141.42,183.25c-.25-1.37-2-3.12-3.33-3.72-.9-.41-2.09-.51-2.16.46-.09,1.17,1.48,3.45,3,4.31S141.68,184.62,141.42,183.25Z" transform="translate(-115.63 -91.76)"/><path class="cls-13" d="M125.18,191c.9-1,.42-3.19-.54-4.31-.65-.78-1.92-1.53-2.84-.94-1.11.71-1.32,3.09-.4,4.49S124.28,192,125.18,191Z" transform="translate(-115.63 -91.76)"/><path class="cls-13" d="M131,185.2c.29-1.34-1.16-3-2.54-3.53-.95-.36-2.42-.41-2.94.55-.64,1.15.32,3.34,1.8,4.13S130.73,186.54,131,185.2Z" transform="translate(-115.63 -91.76)"/><path class="cls-13" d="M134.53,181.05c.17-1.28-1.2-3-2.43-3.58-.85-.42-2.13-.55-2.54.35-.48,1.08.49,3.27,1.83,4.12S134.35,182.33,134.53,181.05Z" transform="translate(-115.63 -91.76)"/><path class="cls-13" d="M140.24,177.24c.17-1.28-1.2-3-2.43-3.58-.85-.41-2.13-.55-2.54.35-.48,1.08.49,3.27,1.83,4.12S140.06,178.52,140.24,177.24Z" transform="translate(-115.63 -91.76)"/><path class="cls-13" d="M142.94,169.62c-.39-1.24-2.35-2.19-3.72-2.21-.95,0-2.17.42-2.15,1.4,0,1.19,1.83,2.75,3.41,2.95S143.33,170.85,142.94,169.62Z" transform="translate(-115.63 -91.76)"/><path class="cls-13" d="M139.1,164c-.39-1.23-2.35-2.18-3.72-2.2-.95,0-2.16.41-2.14,1.4,0,1.19,1.83,2.75,3.4,2.95S139.49,165.25,139.1,164Z" transform="translate(-115.63 -91.76)"/><path class="cls-13" d="M134.19,158.76c-.48-1.14-2.38-2.16-3.65-2.3-.88-.1-2,.17-1.86,1,.13,1.06,1.94,2.62,3.42,2.94S134.66,159.89,134.19,158.76Z" transform="translate(-115.63 -91.76)"/><path class="cls-13" d="M135.82,170.84c.21-1.57-1.6-3.37-3.23-3.87-1.12-.35-2.8-.28-3.32.86-.62,1.39.69,3.83,2.45,4.62S135.62,172.4,135.82,170.84Z" transform="translate(-115.63 -91.76)"/><path class="cls-13" d="M133,174.26a5.82,5.82,0,0,0-3.76-2.08c-.84-.09-1.84.16-1.62,1,.27,1,2.2,2.37,3.64,2.66S133.6,175.29,133,174.26Z" transform="translate(-115.63 -91.76)"/><path class="cls-13" d="M123.81,182.86c.71-1.51-.18-4.24-1.36-5.55-.81-.9-2.23-1.65-3-.71-1,1.12-.75,4.27.45,5.94S123.1,184.38,123.81,182.86Z" transform="translate(-115.63 -91.76)"/><path class="cls-13" d="M128.25,178.48c.14-1.38-1-3.57-2.13-4.52-.74-.65-1.86-1.09-2.2-.18-.42,1.09.43,3.73,1.6,5S128.1,179.86,128.25,178.48Z" transform="translate(-115.63 -91.76)"/><path class="cls-13" d="M122.9,173.93c.35-1.2-.79-2.91-2-3.57-.8-.45-2.08-.68-2.61.14-.65,1,0,3.12,1.25,4S122.54,175.13,122.9,173.93Z" transform="translate(-115.63 -91.76)"/><path class="cls-13" d="M127.71,170.88c.36-1.2-.78-2.91-1.94-3.57-.8-.46-2.08-.69-2.62.13-.64,1,0,3.13,1.26,4S127.36,172.08,127.71,170.88Z" transform="translate(-115.63 -91.76)"/><path class="cls-13" d="M131.92,163.53c-.34-1.3-2.33-2.21-3.77-2.15-1,0-2.28.56-2.31,1.61,0,1.26,1.76,2.83,3.4,3S132.27,164.82,131.92,163.53Z" transform="translate(-115.63 -91.76)"/><path class="cls-13" d="M128.59,154.16c-.37-1.31-2.39-2.5-3.82-2.66-1-.11-2.26.2-2.26,1.21,0,1.23,1.84,3,3.47,3.4S129,155.47,128.59,154.16Z" transform="translate(-115.63 -91.76)"/><path class="cls-13" d="M121.85,167.4c.55-1.22-.51-3.09-1.72-3.87-.84-.53-2.23-.87-2.92-.05-.83,1-.35,3.25.91,4.29S121.31,168.62,121.85,167.4Z" transform="translate(-115.63 -91.76)"/><path class="cls-13" d="M125,163.9a7.61,7.61,0,0,0-3.23-3.8c-.84-.46-1.94-.64-2,.28,0,1.11,1.52,3.4,2.91,4.34S125.29,165.22,125,163.9Z" transform="translate(-115.63 -91.76)"/><path class="cls-13" d="M127.42,159.22a5.82,5.82,0,0,0-3.76-2.08c-.85-.09-1.84.16-1.62,1,.27,1,2.19,2.37,3.64,2.66S128,160.25,127.42,159.22Z" transform="translate(-115.63 -91.76)"/><path class="cls-13" d="M118.5,160.8a10.19,10.19,0,0,0-.55-4.94c-.35-.84-1-1.59-1.33-.83a9.85,9.85,0,0,0,.15,5.22C117.27,161.76,118.18,162.08,118.5,160.8Z" transform="translate(-115.63 -91.76)"/><path class="cls-13" d="M121.59,156.37a5.89,5.89,0,0,0-1.86-3.87c-.63-.56-1.57-.94-1.84-.16-.33.93.43,3.19,1.43,4.27S121.49,157.56,121.59,156.37Z" transform="translate(-115.63 -91.76)"/><path class="cls-13" d="M122.64,150.23a5.55,5.55,0,0,0-2.75-2.45c-.66-.25-1.49-.27-1.41.41a5.41,5.41,0,0,0,2.59,2.87C122.16,151.59,123,151.17,122.64,150.23Z" transform="translate(-115.63 -91.76)"/><path class="cls-13" d="M117.67,150.86a8,8,0,0,0,0-2.89c-.11-.51-.34-1-.53-.55a7.69,7.69,0,0,0-.17,3C117.09,151.36,117.47,151.58,117.67,150.86Z" transform="translate(-115.63 -91.76)"/><path class="cls-13" d="M168.18,171.08a9.63,9.63,0,0,0-3.51-4.39c-.9-.56-2-.85-2,.15,0,1.2,1.73,3.82,3.22,4.95S168.55,172.55,168.18,171.08Z" transform="translate(-115.63 -91.76)"/><path class="cls-13" d="M193.73,185.33c.18-1.41-1.13-3.55-2.32-4.43-.83-.6-2.07-1-2.48,0-.48,1.14.44,3.75,1.74,4.94S193.55,186.75,193.73,185.33Z" transform="translate(-115.63 -91.76)"/><path class="cls-13" d="M201.7,183.2c.18-1.41-1.13-3.54-2.33-4.42-.82-.61-2.07-1-2.47,0-.48,1.14.44,3.76,1.73,4.94S201.51,184.62,201.7,183.2Z" transform="translate(-115.63 -91.76)"/><path class="cls-13" d="M207.73,185.55c.71-1.24.31-3.71-.46-5-.53-.87-1.55-1.68-2.28-1-.88.87-1,3.63-.27,5.22S207,186.79,207.73,185.55Z" transform="translate(-115.63 -91.76)"/><path class="cls-13" d="M204.63,176.29c-.26-1.4-2.17-3-3.58-3.5-1-.32-2.26-.28-2.36.74-.1,1.23,1.57,3.44,3.17,4.16S204.89,177.69,204.63,176.29Z" transform="translate(-115.63 -91.76)"/><path class="cls-13" d="M216.23,270.23c2.21-1.4,1.85-5.31.17-7.66-1.16-1.61-3.61-3.44-5.75-2.82-2.56.75-3.72,4.75-2.19,7.56S214,271.63,216.23,270.23Z" transform="translate(-115.63 -91.76)"/><path class="cls-13" d="M192.09,320.37c-1.44,1-.47,3.13,1.21,4.22,1.16.76,3.35,1.47,4.86.89,1.82-.71,2-3,.34-4.41S193.52,319.35,192.09,320.37Z" transform="translate(-115.63 -91.76)"/><path class="cls-13" d="M183.58,311.65c-1,.71-.69,2.51.22,3.55.63.71,1.89,1.49,2.91,1.14,1.22-.41,1.63-2.29.78-3.55S184.61,311,183.58,311.65Z" transform="translate(-115.63 -91.76)"/><path class="cls-13" d="M194,313.41c-1.05-.66-2.57.35-3.17,1.6a3.1,3.1,0,0,0,.1,3.13c.86,1,2.75.59,3.57-.69S195,314.08,194,313.41Z" transform="translate(-115.63 -91.76)"/><path class="cls-13" d="M174.59,296.44c-1.08-.85-2.69.2-3.34,1.59a4,4,0,0,0,0,3.63c.87,1.17,2.84.9,3.73-.52S175.66,297.29,174.59,296.44Z" transform="translate(-115.63 -91.76)"/><path class="cls-13" d="M166.06,286.66c-1.08-.85-2.68.2-3.34,1.59a4,4,0,0,0,0,3.62c.87,1.18,2.84.91,3.73-.51S167.14,287.51,166.06,286.66Z" transform="translate(-115.63 -91.76)"/><path class="cls-13" d="M185.79,303.39c-1.08-.85-2.68.2-3.34,1.59a4,4,0,0,0,0,3.62c.87,1.18,2.84.91,3.73-.51S186.87,304.24,185.79,303.39Z" transform="translate(-115.63 -91.76)"/><path class="cls-13" d="M192.89,305.89c-1-1-2.69-.13-3.51,1.18a4,4,0,0,0-.43,3.6c.72,1.27,2.71,1.24,3.76-.06S193.85,306.87,192.89,305.89Z" transform="translate(-115.63 -91.76)"/><path class="cls-13" d="M181.62,296.36c-1.13-.77-2.66.4-3.2,1.84a3.92,3.92,0,0,0,.28,3.61c1,1.11,2.9.69,3.68-.79S182.76,297.12,181.62,296.36Z" transform="translate(-115.63 -91.76)"/><path class="cls-13" d="M173.7,290.06c-.45-1.15-2.24-1.21-3.45-.54a3.15,3.15,0,0,0-1.75,2.6c.12,1.28,1.83,2.09,3.23,1.52S174.14,291.22,173.7,290.06Z" transform="translate(-115.63 -91.76)"/><path class="cls-13" d="M180.25,290.18c-1-.84-3-.27-4,.73-.7.69-1.34,2-.75,2.87.7,1.08,2.93,1.17,4.2.19S181.25,291,180.25,290.18Z" transform="translate(-115.63 -91.76)"/><path class="cls-13" d="M189.63,297.07c-1.31,0-2.48,1.68-2.64,3.1-.1,1,.22,2.38,1.24,2.7,1.22.38,3-.95,3.37-2.51S191,297.09,189.63,297.07Z" transform="translate(-115.63 -91.76)"/><path class="cls-13" d="M185.52,291c-1.14.37-2,2.2-2.06,3.47,0,.88.37,2,1.28,2,1.1,0,2.55-1.73,2.75-3.19S186.67,290.64,185.52,291Z" transform="translate(-115.63 -91.76)"/><path class="cls-13" d="M185.71,285.69c-1.12-.45-3,.38-3.81,1.34-.58.66-1,1.77-.29,2.33.87.68,3.07.32,4.16-.68S186.83,286.13,185.71,285.69Z" transform="translate(-115.63 -91.76)"/><path class="cls-13" d="M178.74,284.86a4.77,4.77,0,0,0-3.83,1.24c-.59.56-1,1.5-.36,1.95s3,.16,4.15-.7S179.83,285.2,178.74,284.86Z" transform="translate(-115.63 -91.76)"/><path class="cls-13" d="M160.28,283.83a4.78,4.78,0,0,0-.87,3.93c.19.8.76,1.67,1.5,1.3s1.67-2.54,1.5-3.94S161.12,283.06,160.28,283.83Z" transform="translate(-115.63 -91.76)"/><path class="cls-13" d="M158,281.68a5.21,5.21,0,0,0-3.7,1.56c-.55.58-.94,1.48-.22,1.81.87.39,3-.2,4.06-1.11S159.15,281.86,158,281.68Z" transform="translate(-115.63 -91.76)"/><path class="cls-13" d="M170.48,284.29a3.66,3.66,0,0,0-2.15,2.42c-.16.65-.08,1.51.6,1.57s2.2-1.07,2.61-2.15S171.39,284.11,170.48,284.29Z" transform="translate(-115.63 -91.76)"/><path class="cls-13" d="M142.52,244.14c-1.42-.25-3.18,1.31-3.75,2.76-.39,1-.44,2.51.58,3,1.23.62,3.55-.45,4.39-2S144,244.4,142.52,244.14Z" transform="translate(-115.63 -91.76)"/><path class="cls-13" d="M134.49,246c-1.35-.12-3.16,1.34-3.8,2.62-.44.89-.59,2.2.36,2.57,1.14.45,3.45-.63,4.37-2S135.85,246.08,134.49,246Z" transform="translate(-115.63 -91.76)"/><path class="cls-13" d="M201.9,311.54c-1.41-.84-3.47.48-4.29,2.09-.56,1.1-.87,3,.08,4,1.15,1.22,3.69.72,4.81-.93S203.3,312.37,201.9,311.54Z" transform="translate(-115.63 -91.76)"/><path class="cls-13" d="M199.82,303.34c-1.4-.84-3.46.48-4.28,2.09-.56,1.1-.87,3,.08,4,1.14,1.21,3.69.72,4.81-.94S201.23,304.17,199.82,303.34Z" transform="translate(-115.63 -91.76)"/><path class="cls-13" d="M198.11,296c-1.4-.84-3.46.48-4.28,2.09-.56,1.1-.87,3,.08,4,1.15,1.22,3.69.72,4.81-.93S199.52,296.84,198.11,296Z" transform="translate(-115.63 -91.76)"/><path class="cls-13" d="M193.34,284.85c-.56-1.09-2.34-1-3.46-.19a3.1,3.1,0,0,0-1.46,2.73c.26,1.25,2,1.86,3.36,1.16S193.91,285.93,193.34,284.85Z" transform="translate(-115.63 -91.76)"/><path class="cls-13" d="M195.84,291.1c-.57-1.08-2.35-1-3.47-.18a3.09,3.09,0,0,0-1.46,2.72c.26,1.25,2,1.87,3.36,1.17S196.4,292.19,195.84,291.1Z" transform="translate(-115.63 -91.76)"/><path class="cls-13" d="M205.49,319.35c-1.57-.45-3.23,1.34-3.62,3.1-.28,1.21-.1,3.11,1.07,3.85,1.41.89,3.75-.23,4.42-2.1S207.06,319.81,205.49,319.35Z" transform="translate(-115.63 -91.76)"/><path class="cls-13" d="M199.84,284.87c-.57-1.09-2.35-1-3.47-.19a3.07,3.07,0,0,0-1.45,2.73c.25,1.25,2,1.86,3.35,1.16S200.4,286,199.84,284.87Z" transform="translate(-115.63 -91.76)"/><path class="cls-13" d="M203.54,288.93c-1.53-.58-3.33,1.07-3.86,2.79-.37,1.18-.35,3.1.76,3.93,1.34,1,3.76.07,4.58-1.75S205.07,289.5,203.54,288.93Z" transform="translate(-115.63 -91.76)"/><path class="cls-13" d="M205.65,296.49c-1.53-.58-3.33,1.07-3.86,2.79-.37,1.19-.35,3.1.76,3.93,1.34,1,3.76.08,4.58-1.74S207.18,297.07,205.65,296.49Z" transform="translate(-115.63 -91.76)"/><path class="cls-13" d="M207.27,305.16c-1.37-.34-3.15,1.08-3.77,2.48-.42.95-.54,2.45.43,3,1.16.69,3.47-.21,4.35-1.7S208.65,305.51,207.27,305.16Z" transform="translate(-115.63 -91.76)"/><path class="cls-13" d="M209.8,311.05c-1.37-.34-3.15,1.08-3.77,2.48-.42,1-.54,2.46.42,3,1.17.69,3.48-.21,4.36-1.7S211.17,311.4,209.8,311.05Z" transform="translate(-115.63 -91.76)"/><path class="cls-13" d="M212.94,317.18c-1.94-.09-3.34,2.44-3.29,4.58,0,1.47.78,3.61,2.34,4.14,1.88.63,4.25-1.31,4.49-3.66S214.87,317.27,212.94,317.18Z" transform="translate(-115.63 -91.76)"/><path class="cls-13" d="M202,277.59c-.57-1.09-2.35-1-3.47-.19a3.12,3.12,0,0,0-1.46,2.73c.26,1.25,2,1.86,3.36,1.17S202.51,278.68,202,277.59Z" transform="translate(-115.63 -91.76)"/><path class="cls-13" d="M206.14,281.05c-.4-1-1.85-.81-2.8,0a3.75,3.75,0,0,0-1.34,2.76,1.62,1.62,0,0,0,2.65.95C205.74,284,206.53,282.08,206.14,281.05Z" transform="translate(-115.63 -91.76)"/><path class="cls-13" d="M206.3,272.21c-.4-1-1.84-.81-2.79,0a3.69,3.69,0,0,0-1.34,2.76,1.62,1.62,0,0,0,2.65.95A3.9,3.9,0,0,0,206.3,272.21Z" transform="translate(-115.63 -91.76)"/><path class="cls-13" d="M210.39,274.89c-.39-1-1.84-.82-2.79,0a3.73,3.73,0,0,0-1.34,2.77,1.62,1.62,0,0,0,2.65.95A3.9,3.9,0,0,0,210.39,274.89Z" transform="translate(-115.63 -91.76)"/><path class="cls-13" d="M215.19,309.05c-1.43.3-2,2.42-1.62,4,.28,1.07,1.19,2.51,2.43,2.6,1.48.11,2.88-1.76,2.65-3.53S216.62,308.75,215.19,309.05Z" transform="translate(-115.63 -91.76)"/><path class="cls-13" d="M211.3,302.18c-1.43.3-2,2.41-1.62,4,.28,1.08,1.19,2.51,2.43,2.61,1.48.11,2.88-1.76,2.65-3.53S212.73,301.88,211.3,302.18Z" transform="translate(-115.63 -91.76)"/><path class="cls-13" d="M210.15,291.37c-1.78.52-2.69,3.3-2.34,5.27.24,1.36,1.23,3.12,2.72,3.13,1.81,0,3.69-2.53,3.57-4.79S211.92,290.85,210.15,291.37Z" transform="translate(-115.63 -91.76)"/><path class="cls-13" d="M214.23,273.06c-1.44.3-2,2.42-1.62,4,.28,1.08,1.19,2.51,2.42,2.6,1.49.11,2.89-1.76,2.66-3.53S215.66,272.76,214.23,273.06Z" transform="translate(-115.63 -91.76)"/><path class="cls-13" d="M210.27,282c-.83,1.22.42,2.87,2,3.47,1.07.41,2.89.56,3.89-.29,1.2-1,.74-3.13-.84-4S211.09,280.75,210.27,282Z" transform="translate(-115.63 -91.76)"/><path class="cls-13" d="M286.68,239.8c1.16-1,3.43-.29,4.58,1,.79.87,1.51,2.49.82,3.6-.83,1.33-3.39,1.41-4.83.16S285.52,240.83,286.68,239.8Z" transform="translate(-115.63 -91.76)"/><path class="cls-13" d="M288.24,252.37c1.17-1,3.44-.29,4.59,1,.78.87,1.5,2.5.81,3.6-.82,1.33-3.38,1.41-4.82.17S287.08,253.41,288.24,252.37Z" transform="translate(-115.63 -91.76)"/><path class="cls-13" d="M289.34,229.79c1.41.35,1.6,2.38.89,3.84-.48,1-1.69,2.31-3,2.34-1.54,0-2.61-1.8-2-3.46S287.94,229.44,289.34,229.79Z" transform="translate(-115.63 -91.76)"/><path class="cls-13" d="M287.33,262.75c1.16-1,3.43-.28,4.58,1,.79.88,1.5,2.5.82,3.61-.83,1.32-3.39,1.41-4.83.16S286.16,263.79,287.33,262.75Z" transform="translate(-115.63 -91.76)"/><path class="cls-13" d="M284.81,272.9c.41-1.1,2.18-1.39,3.38-.95.83.3,1.88,1.13,1.8,2.1-.08,1.17-1.75,2.12-3.15,1.8S284.4,274,284.81,272.9Z" transform="translate(-115.63 -91.76)"/><path class="cls-13" d="M280.36,278.77c.17-1.37,2.11-2,3.6-1.63,1,.24,2.43,1.08,2.6,2.25.21,1.41-1.43,2.78-3.1,2.6S280.18,280.13,280.36,278.77Z" transform="translate(-115.63 -91.76)"/><path class="cls-13" d="M274.91,289.76c.17-1.36,2-1.75,3.5-1.23,1,.37,2.37,1.37,2.54,2.58.22,1.45-1.38,2.65-3,2.27S274.75,291.12,274.91,289.76Z" transform="translate(-115.63 -91.76)"/><path class="cls-13" d="M281.61,283.52c1-.72,2.59.22,3.25,1.44a3.1,3.1,0,0,1,.06,3.13c-.82,1-2.72.73-3.6-.51S280.59,284.23,281.61,283.52Z" transform="translate(-115.63 -91.76)"/><path class="cls-13" d="M257,294.7c1.08-.85,2.69.2,3.34,1.59a3.92,3.92,0,0,1,0,3.62c-.87,1.18-2.85.91-3.73-.51S255.88,295.55,257,294.7Z" transform="translate(-115.63 -91.76)"/><path class="cls-13" d="M266.31,297.94c.79-.61,2,.15,2.47,1.16a2.8,2.8,0,0,1,0,2.61,1.73,1.73,0,0,1-2.75-.38A2.88,2.88,0,0,1,266.31,297.94Z" transform="translate(-115.63 -91.76)"/><path class="cls-13" d="M264.37,303.17c1.24-.14,2.17,1.43,2.16,2.81a3.1,3.1,0,0,1-1.44,2.78c-1.2.49-2.74-.66-2.92-2.17S263.13,303.31,264.37,303.17Z" transform="translate(-115.63 -91.76)"/><path class="cls-13" d="M256.09,303.35c1.15-.49,2.49.75,2.89,2.07a3.12,3.12,0,0,1-.58,3.08c-1,.81-2.81.15-3.42-1.24S255,303.84,256.09,303.35Z" transform="translate(-115.63 -91.76)"/><path class="cls-13" d="M267.71,286.81c.61-.76,2-.4,2.74.37a2.41,2.41,0,0,1,.72,2.33,1.87,1.87,0,0,1-2.8.4C267.46,289.18,267.1,287.56,267.71,286.81Z" transform="translate(-115.63 -91.76)"/><path class="cls-13" d="M252,310.17c1.08-.62,2.56.45,3.1,1.72a3.09,3.09,0,0,1-.21,3.12c-.9.93-2.78.48-3.55-.83S250.94,310.79,252,310.17Z" transform="translate(-115.63 -91.76)"/><path class="cls-13" d="M246.65,312.76c1.45.16,2.3,2.2,2.1,3.79-.14,1.09-.86,2.6-2.06,2.81-1.45.25-3.06-1.47-3.05-3.24S245.21,312.6,246.65,312.76Z" transform="translate(-115.63 -91.76)"/><path class="cls-13" d="M266.09,197.25c.21-1.24,2-1.84,3.39-1.57.93.2,2.2.91,2.31,2,.14,1.27-1.43,2.56-3,2.44S265.87,198.49,266.09,197.25Z" transform="translate(-115.63 -91.76)"/><path class="cls-13" d="M248.17,200.66c-.34-1.53,1.33-3.39,2.92-4,1.09-.4,2.78-.43,3.39.66.73,1.33-.37,3.8-2.08,4.68S248.51,202.19,248.17,200.66Z" transform="translate(-115.63 -91.76)"/><path class="cls-13" d="M233.07,204.94c-.34-1.53,1.33-3.39,2.92-4,1.09-.4,2.78-.44,3.38.66.74,1.33-.36,3.8-2.07,4.68S233.41,206.47,233.07,204.94Z" transform="translate(-115.63 -91.76)"/><path class="cls-13" d="M221.58,216.63c-.85-1.28-.14-3.72,1-4.93.77-.83,2.18-1.56,3.1-.79,1.11.93,1.1,3.7,0,5.23S222.42,217.92,221.58,216.63Z" transform="translate(-115.63 -91.76)"/><path class="cls-13" d="M222.74,203.94c-.4-1.49,1.07-3.57,2.52-4.36,1-.53,2.57-.78,3.19.25.76,1.24-.15,3.86-1.69,4.95S223.13,205.43,222.74,203.94Z" transform="translate(-115.63 -91.76)"/><path class="cls-13" d="M227.75,193.24c-.39-1.49,1.07-3.57,2.52-4.35,1-.54,2.57-.78,3.2.25.75,1.24-.15,3.86-1.7,4.94S228.14,194.74,227.75,193.24Z" transform="translate(-115.63 -91.76)"/><path class="cls-13" d="M237.61,193.84c-.39-1.5,1.07-3.57,2.52-4.36,1-.54,2.58-.78,3.2.25.75,1.24-.15,3.86-1.7,5S238,195.33,237.61,193.84Z" transform="translate(-115.63 -91.76)"/><path class="cls-13" d="M218.41,193.72c-.18-1.42,1.13-3.55,2.32-4.43.83-.6,2.07-1,2.48,0,.48,1.14-.44,3.75-1.73,4.93S218.59,195.13,218.41,193.72Z" transform="translate(-115.63 -91.76)"/><path class="cls-13" d="M240.16,181.23c.27-1.42,2.24-3,3.71-3.37,1-.27,2.36-.15,2.46.91.12,1.27-1.61,3.43-3.27,4.08S239.9,182.65,240.16,181.23Z" transform="translate(-115.63 -91.76)"/><path class="cls-13" d="M232.52,173.82c.26-1.42,2.24-3,3.7-3.37,1-.27,2.36-.14,2.46.91.12,1.27-1.61,3.43-3.27,4.08S232.25,175.25,232.52,173.82Z" transform="translate(-115.63 -91.76)"/><path class="cls-13" d="M246.89,191.8c.39-1.4,2.5-2.76,4-3,1-.18,2.37.07,2.37,1.13,0,1.28-1.92,3.27-3.63,3.76S246.49,193.19,246.89,191.8Z" transform="translate(-115.63 -91.76)"/><path class="cls-13" d="M270.47,294.63c.72-1.17,2.59-.73,3.68.36a3.91,3.91,0,0,1,1.23,3.41c-.42,1.4-2.37,1.81-3.68.79S269.75,295.79,270.47,294.63Z" transform="translate(-115.63 -91.76)"/><path class="cls-13" d="M264.61,292.12c.91-.33,1.9.69,2.14,1.74a2.42,2.42,0,0,1-.59,2.37,1.88,1.88,0,0,1-2.61-1.12C263.15,294,263.69,292.44,264.61,292.12Z" transform="translate(-115.63 -91.76)"/><path class="cls-13" d="M273.51,282.92c.61-.76,2-.4,2.74.37a2.41,2.41,0,0,1,.72,2.33,1.87,1.87,0,0,1-2.8.4C273.26,285.29,272.9,283.67,273.51,282.92Z" transform="translate(-115.63 -91.76)"/><path class="cls-13" d="M248.44,303.7c1.23.16,1.77,1.9,1.44,3.25-.23.92-1,2.19-2.06,2.36-1.27.19-2.5-1.29-2.32-2.8S247.2,303.55,248.44,303.7Z" transform="translate(-115.63 -91.76)"/><path class="cls-13" d="M241.07,318.22c1,.71.69,2.51-.22,3.55a3.09,3.09,0,0,1-2.91,1.14c-1.22-.41-1.63-2.29-.78-3.55S240,317.52,241.07,318.22Z" transform="translate(-115.63 -91.76)"/><path class="cls-13" d="M219.22,228.52c.2-1.54,2.33-2.91,4-3.09,1.13-.13,2.68.24,2.87,1.43.23,1.43-1.59,3.51-3.43,3.94S219,230,219.22,228.52Z" transform="translate(-115.63 -91.76)"/><path class="cls-13" d="M229.15,220.54c-.16-1.54,1.61-3.36,3.16-3.91,1.07-.38,2.67-.38,3.12.74.55,1.34-.74,3.78-2.44,4.62S229.3,222.07,229.15,220.54Z" transform="translate(-115.63 -91.76)"/><path class="cls-13" d="M238.06,211.53c.82-2.17,4.43-3.43,6.89-3.12,1.7.21,3.83,1.29,3.7,3.09-.17,2.17-3.56,4.59-6.41,4.57S237.23,213.7,238.06,211.53Z" transform="translate(-115.63 -91.76)"/><path class="cls-13" d="M219.19,238.27c.32-1.51,2.56-2.71,4.21-2.75,1.13,0,2.65.46,2.74,1.66.12,1.44-1.87,3.37-3.74,3.65S218.87,239.78,219.19,238.27Z" transform="translate(-115.63 -91.76)"/><path class="cls-13" d="M228.79,230.67c.63-1.41,3.07-2.11,4.69-1.81,1.12.2,2.49,1,2.33,2.19-.19,1.44-2.53,2.91-4.42,2.79S228.16,232.07,228.79,230.67Z" transform="translate(-115.63 -91.76)"/><path class="cls-13" d="M238.9,223.82c.8-1.88,4-2.77,6.16-2.33,1.47.3,3.31,1.4,3.13,3-.23,1.92-3.29,3.85-5.78,3.65S238.1,225.7,238.9,223.82Z" transform="translate(-115.63 -91.76)"/><path class="cls-13" d="M248.81,217.11c.8-1.88,4-2.77,6.16-2.33,1.47.3,3.31,1.4,3.13,3-.23,1.92-3.29,3.85-5.78,3.65S248,219,248.81,217.11Z" transform="translate(-115.63 -91.76)"/><path class="cls-13" d="M253.23,207.05c.8-1.87,4-2.76,6.16-2.33,1.47.3,3.31,1.4,3.12,3-.22,1.92-3.28,3.85-5.77,3.65S252.43,208.93,253.23,207.05Z" transform="translate(-115.63 -91.76)"/><path class="cls-13" d="M262.29,213.09c.8-1.88,4-2.77,6.15-2.33,1.48.3,3.31,1.4,3.13,3-.22,1.92-3.28,3.85-5.78,3.65S261.48,215,262.29,213.09Z" transform="translate(-115.63 -91.76)"/><path class="cls-13" d="M266.72,206.11c.11-1.44,2.09-2.54,3.65-2.55,1.08,0,2.59.5,2.84,1.64.3,1.39-1.34,3.2-3.09,3.42S266.61,207.54,266.72,206.11Z" transform="translate(-115.63 -91.76)"/><path class="cls-13" d="M217.56,246.19c.56-1.14,2.57-1.64,3.88-1.35.91.19,2,.89,1.85,1.85-.2,1.17-2.15,2.31-3.69,2.16S217,247.32,217.56,246.19Z" transform="translate(-115.63 -91.76)"/><path class="cls-13" d="M218.75,257c-1.06-1.43.17-3.75,1.85-4.78,1.15-.7,3.19-1.21,4.39-.28,1.45,1.11,1.17,3.88-.53,5.22S219.8,258.44,218.75,257Z" transform="translate(-115.63 -91.76)"/><path class="cls-13" d="M226.58,247.4c-1.05-1.43.18-3.75,1.86-4.78,1.15-.7,3.18-1.21,4.39-.28,1.45,1.11,1.16,3.88-.53,5.22S227.64,248.82,226.58,247.4Z" transform="translate(-115.63 -91.76)"/><path class="cls-13" d="M233.73,237.57c0-1.77,2.31-3,4.27-2.83,1.35.09,3.3.85,3.75,2.3.54,1.75-1.29,3.84-3.45,4S233.77,239.35,233.73,237.57Z" transform="translate(-115.63 -91.76)"/><path class="cls-13" d="M244,233.1c0-1.78,2.3-3,4.26-2.83,1.35.09,3.31.85,3.76,2.3.54,1.74-1.29,3.84-3.45,4S244,234.87,244,233.1Z" transform="translate(-115.63 -91.76)"/><path class="cls-13" d="M253.45,227c-.3-2.18,2.25-4.61,4.54-5.26,1.57-.44,3.94-.3,4.67,1.31.88,1.94-.94,5.29-3.43,6.33S253.74,229.21,253.45,227Z" transform="translate(-115.63 -91.76)"/><path class="cls-13" d="M230,254c-.79-1.17.17-3.1,1.46-4,.88-.6,2.43-1,3.34-.28,1.09.9.85,3.2-.45,4.33S230.76,255.21,230,254Z" transform="translate(-115.63 -91.76)"/><path class="cls-13" d="M236.65,247.22c-.21-1.64,1.81-3.14,3.6-3.37,1.23-.15,3.08.21,3.63,1.48.66,1.52-.8,3.77-2.75,4.26S236.85,248.85,236.65,247.22Z" transform="translate(-115.63 -91.76)"/><path class="cls-13" d="M246.57,245.72c-.95-1.34.11-3.63,1.58-4.67,1-.73,2.81-1.28,3.89-.43,1.31,1,1.09,3.7-.39,5.06S247.53,247.06,246.57,245.72Z" transform="translate(-115.63 -91.76)"/><path class="cls-13" d="M254.73,238.7c-1.25-.64-1.11-2.67-.22-3.94.61-.88,1.93-1.92,3.12-1.68,1.43.29,2.13,2.31,1.34,3.82S256,239.34,254.73,238.7Z" transform="translate(-115.63 -91.76)"/><path class="cls-13" d="M256.64,243.69c-1.18-.42-.91-2,.05-3.09a4.4,4.4,0,0,1,3.17-1.51c1.38.13,1.93,1.67,1.05,2.91S257.82,244.11,256.64,243.69Z" transform="translate(-115.63 -91.76)"/><path class="cls-13" d="M264.83,240.3c-1.56-.63-1.25-2.88,0-4.34.85-1,2.62-2.24,4.14-2.05,1.83.23,2.61,2.42,1.48,4.13S266.4,240.93,264.83,240.3Z" transform="translate(-115.63 -91.76)"/><path class="cls-13" d="M263.71,233.6c-1.46.34-1.72-1.36-1-3a7.52,7.52,0,0,1,3-3.44c1.6-.74,2.76.38,2.2,2.11S265.18,233.26,263.71,233.6Z" transform="translate(-115.63 -91.76)"/><path class="cls-13" d="M282.37,239.82c-1,1.37-3.09.54-4.22-1-.78-1.06-1.54-3.08-1-4.5.66-1.72,3-2,4.37-.45S283.36,238.45,282.37,239.82Z" transform="translate(-115.63 -91.76)"/><path class="cls-13" d="M274,235.63c-1.35.62-2.16-1-2-2.69A6.39,6.39,0,0,1,273.9,229c1.35-1,2.87-.18,2.88,1.62S275.34,235,274,235.63Z" transform="translate(-115.63 -91.76)"/><path class="cls-13" d="M265.8,223.56c-.67-1.31.64-3.07,2.14-3.71,1-.43,2.76-.59,3.63.32,1,1.1.45,3.35-1.12,4.25S266.48,224.88,265.8,223.56Z" transform="translate(-115.63 -91.76)"/><path class="cls-13" d="M280.68,230.51c-1.56-.63-1.26-2.88,0-4.35.85-1,2.62-2.23,4.14-2,1.82.23,2.6,2.42,1.48,4.13S282.25,231.13,280.68,230.51Z" transform="translate(-115.63 -91.76)"/><path class="cls-13" d="M274.45,225.44c-1-1.07-.37-3.26.71-4.39.75-.78,2.16-1.52,3.16-.9,1.2.75,1.36,3.19.3,4.6S275.4,226.52,274.45,225.44Z" transform="translate(-115.63 -91.76)"/><path class="cls-13" d="M282,220.71c-.68-1.31.63-3.08,2.13-3.71,1-.44,2.76-.6,3.63.32,1,1.1.45,3.35-1.11,4.25S282.69,222,282,220.71Z" transform="translate(-115.63 -91.76)"/><path class="cls-13" d="M289.69,227.37c-.85.62-1.58-.4-1.64-1.63a4.81,4.81,0,0,1,.87-3c.81-.92,1.94-.52,2.14.75A5,5,0,0,1,289.69,227.37Z" transform="translate(-115.63 -91.76)"/><path class="cls-13" d="M273.7,215.85c.11-1.43,2.09-2.53,3.66-2.54,1.07,0,2.58.49,2.83,1.64.3,1.38-1.33,3.19-3.08,3.42S273.59,217.29,273.7,215.85Z" transform="translate(-115.63 -91.76)"/><path class="cls-13" d="M274.84,210.58c-.65-1.16.32-3,1.53-3.82.83-.55,2.27-.93,3.05-.17.94.92.6,3.15-.64,4.21S275.49,211.75,274.84,210.58Z" transform="translate(-115.63 -91.76)"/><path class="cls-13" d="M257.26,200.63c-.33-1.53,1.33-3.4,2.92-4,1.09-.41,2.78-.44,3.39.66.73,1.32-.37,3.79-2.07,4.67S257.6,202.15,257.26,200.63Z" transform="translate(-115.63 -91.76)"/><path class="cls-13" d="M255.5,192.89c.4-1.4,2.51-2.76,4-3,1-.18,2.36.07,2.37,1.13,0,1.28-1.92,3.27-3.63,3.76S255.11,194.28,255.5,192.89Z" transform="translate(-115.63 -91.76)"/><path class="cls-13" d="M263.91,192.14c.39-1.39,2.5-2.76,4-3,1-.17,2.37.07,2.37,1.13,0,1.28-1.92,3.27-3.63,3.77S263.51,193.54,263.91,192.14Z" transform="translate(-115.63 -91.76)"/><path class="cls-13" d="M254.61,186.36c.4-1.39,2.5-2.76,4-3,1-.17,2.36.07,2.37,1.13,0,1.28-1.92,3.27-3.63,3.76S254.22,187.75,254.61,186.36Z" transform="translate(-115.63 -91.76)"/><path class="cls-13" d="M247.94,182.8c.39-1.4,2.5-2.76,4-3,1-.18,2.36.06,2.36,1.13,0,1.28-1.92,3.27-3.63,3.76S247.55,184.19,247.94,182.8Z" transform="translate(-115.63 -91.76)"/><path class="cls-13" d="M263.52,186.13c0-1.45,1.67-3.33,3-4,.94-.45,2.29-.57,2.58.45.35,1.23-1,3.66-2.48,4.6S263.52,187.58,263.52,186.13Z" transform="translate(-115.63 -91.76)"/><path class="cls-13" d="M270.16,186.6c0-1.45,1.67-3.33,3-4,.94-.45,2.29-.57,2.58.45.35,1.23-1,3.67-2.48,4.6S270.16,188.05,270.16,186.6Z" transform="translate(-115.63 -91.76)"/><path class="cls-13" d="M255.75,178.39c-.14-1.44,1.34-3.47,2.64-4.25.9-.53,2.23-.79,2.62.2.46,1.19-.62,3.74-2,4.82S255.88,179.84,255.75,178.39Z" transform="translate(-115.63 -91.76)"/><path class="cls-13" d="M261.2,180c-.13-1.44,1.34-3.48,2.65-4.25.89-.54,2.23-.79,2.61.2.47,1.19-.61,3.74-2,4.81S261.34,181.4,261.2,180Z" transform="translate(-115.63 -91.76)"/><path class="cls-13" d="M270.46,179.62c.48-1.31,2.51-2.76,3.89-3.14.95-.26,2.14-.17,2.06.8-.1,1.16-2,3.16-3.61,3.78S270,180.92,270.46,179.62Z" transform="translate(-115.63 -91.76)"/><path class="cls-13" d="M267.88,176.7c-.34-1.35.54-3.69,1.47-4.77.64-.75,1.69-1.34,2.16-.5.56,1,.09,3.75-.89,5.16S268.22,178,267.88,176.7Z" transform="translate(-115.63 -91.76)"/><path class="cls-13" d="M262.88,172.45a5.86,5.86,0,0,1,2.95-3.1c.78-.34,1.79-.4,1.81.42,0,1-1.38,2.91-2.66,3.62S262.61,173.61,262.88,172.45Z" transform="translate(-115.63 -91.76)"/><path class="cls-13" d="M275.42,173.75c0-1.39,1.37-3.46,2.53-4.3.8-.58,1.95-.91,2.21,0,.32,1.12-.77,3.67-2.05,4.81S275.44,175.14,275.42,173.75Z" transform="translate(-115.63 -91.76)"/><path class="cls-13" d="M268.83,167.63c-.44-1.32.25-3.71,1.1-4.86.59-.8,1.58-1.47,2.11-.66.65,1,.38,3.73-.49,5.21S269.27,169,268.83,167.63Z" transform="translate(-115.63 -91.76)"/><path class="cls-13" d="M272.54,169.47c0-1.39,1.53-3.39,2.73-4.18.82-.54,2-.82,2.2.12.26,1.14-.94,3.63-2.27,4.71S272.49,170.86,272.54,169.47Z" transform="translate(-115.63 -91.76)"/><path class="cls-13" d="M278.65,166.74a7.61,7.61,0,0,1,3.23-3.8c.84-.46,1.94-.64,1.95.28,0,1.11-1.52,3.4-2.91,4.34S278.35,168.07,278.65,166.74Z" transform="translate(-115.63 -91.76)"/><path class="cls-13" d="M249.16,177.27a9.53,9.53,0,0,1,3.52-4.39c.89-.57,2-.85,2,.15,0,1.2-1.73,3.82-3.22,4.95S248.8,178.73,249.16,177.27Z" transform="translate(-115.63 -91.76)"/><path class="cls-13" d="M277.14,163.43a9.57,9.57,0,0,1,.3-5.62c.4-1,1.17-1.88,1.73-1.05.69,1,.82,4.11.27,5.89S277.69,164.83,277.14,163.43Z" transform="translate(-115.63 -91.76)"/><path class="cls-13" d="M283.88,160.63a10,10,0,0,1,3.13-3.87c.75-.52,1.68-.82,1.58,0a9.8,9.8,0,0,1-2.94,4.33C284.41,162.11,283.47,161.88,283.88,160.63Z" transform="translate(-115.63 -91.76)"/><path class="cls-13" d="M281,160.63a7.23,7.23,0,0,1,.66-4.15c.37-.7,1-1.31,1.37-.65a7,7,0,0,1-.27,4.4C282.25,161.49,281.33,161.71,281,160.63Z" transform="translate(-115.63 -91.76)"/><path class="cls-13" d="M284.24,155.16a5.57,5.57,0,0,1,2.76-2.45c.66-.25,1.48-.26,1.4.41a5.36,5.36,0,0,1-2.58,2.88C284.72,156.53,283.89,156.1,284.24,155.16Z" transform="translate(-115.63 -91.76)"/><path class="cls-13" d="M289,155.35a5.55,5.55,0,0,1,2.75-2.45c.66-.24,1.49-.26,1.41.41a5.44,5.44,0,0,1-2.58,2.88C289.47,156.72,288.63,156.29,289,155.35Z" transform="translate(-115.63 -91.76)"/><path class="cls-13" d="M289.12,151.63a5.5,5.5,0,0,1,3-2.07c.69-.16,1.51-.07,1.35.59a5.47,5.47,0,0,1-2.94,2.51C289.42,153.05,288.64,152.52,289.12,151.63Z" transform="translate(-115.63 -91.76)"/><path class="cls-13" d="M294,151.72A8.74,8.74,0,0,1,297.8,149c.81-.26,1.75-.27,1.47.48-.33.91-2.29,2.58-3.69,3.16S293.37,152.76,294,151.72Z" transform="translate(-115.63 -91.76)"/><path class="cls-13" d="M294.47,147.93a8.74,8.74,0,0,1,3.77-2.68c.81-.26,1.74-.27,1.47.48-.33.91-2.29,2.58-3.7,3.16S293.81,149,294.47,147.93Z" transform="translate(-115.63 -91.76)"/><path class="cls-13" d="M300.4,143.88a6.61,6.61,0,0,1,3.72-1.47c.76,0,1.58.22,1.23.85a6.34,6.34,0,0,1-3.73,1.94C300.32,145.35,299.67,144.67,300.4,143.88Z" transform="translate(-115.63 -91.76)"/><path class="cls-13" d="M299.44,147.8a3.52,3.52,0,0,1,2.3-1.78c.58-.13,1.31,0,1.29.56s-1.15,1.87-2.11,2.19S299.19,148.58,299.44,147.8Z" transform="translate(-115.63 -91.76)"/><path class="cls-13" d="M303.59,145.73a5.05,5.05,0,0,1,2.21-1.87c.51-.2,1.11-.23,1,.27a4.87,4.87,0,0,1-2.12,2.17C303.82,146.72,303.25,146.43,303.59,145.73Z" transform="translate(-115.63 -91.76)"/><path class="cls-13" d="M282.77,212.65c-.63-2.09,1.81-4.11,4.22-4.48,1.65-.25,4.25.13,5.27,1.73,1.22,1.93-.31,4.9-2.87,5.62S283.39,214.75,282.77,212.65Z" transform="translate(-115.63 -91.76)"/><path class="cls-13" d="M281.42,206.31c-.94-1.51.37-3.86,2.05-4.86,1.15-.68,3.14-1.14,4.25-.14,1.34,1.19.91,4-.8,5.36S282.36,207.81,281.42,206.31Z" transform="translate(-115.63 -91.76)"/><path class="cls-13" d="M274,202.54c-.41-1.38,1-3.11,2.5-3.68,1-.39,2.6-.46,3.24.52.77,1.19-.11,3.46-1.66,4.3S274.43,203.92,274,202.54Z" transform="translate(-115.63 -91.76)"/><path class="cls-13" d="M273.5,195.45c-.74-1.16.08-3.17,1.22-4.12.79-.65,2.19-1.18,3-.46,1,.87.85,3.22-.3,4.44S274.25,196.6,273.5,195.45Z" transform="translate(-115.63 -91.76)"/><path class="cls-13" d="M291.71,206.09c-.94-1.5.38-3.85,2.05-4.85,1.15-.69,3.14-1.14,4.25-.15,1.34,1.19.91,4-.8,5.36S292.65,207.59,291.71,206.09Z" transform="translate(-115.63 -91.76)"/><path class="cls-13" d="M281.29,198.05c-.94-1.5.38-3.85,2-4.85,1.15-.69,3.14-1.14,4.25-.15,1.34,1.19.91,4-.8,5.37S282.23,199.56,281.29,198.05Z" transform="translate(-115.63 -91.76)"/><path class="cls-13" d="M277.26,188c-.71-1.52.18-4.25,1.36-5.55.81-.9,2.23-1.65,3.05-.72,1,1.13.75,4.28-.45,5.95S278,189.49,277.26,188Z" transform="translate(-115.63 -91.76)"/><path class="cls-13" d="M281.72,190.46c0-1.45,1.67-3.33,3-4,.94-.45,2.3-.58,2.59.45.34,1.23-1,3.66-2.49,4.6S281.72,191.9,281.72,190.46Z" transform="translate(-115.63 -91.76)"/><path class="cls-13" d="M288.93,199.55c0-1.45,1.66-3.33,3-4,.94-.45,2.3-.57,2.59.45.35,1.23-1,3.66-2.49,4.6S288.92,201,288.93,199.55Z" transform="translate(-115.63 -91.76)"/><path class="cls-13" d="M297.09,197.4c0-1.45,1.67-3.33,3-4,.94-.45,2.29-.57,2.58.45.35,1.23-1,3.67-2.48,4.6S297.09,198.85,297.09,197.4Z" transform="translate(-115.63 -91.76)"/><path class="cls-13" d="M291.55,192.3c-.21-1.57,1.6-3.37,3.23-3.87,1.12-.35,2.8-.28,3.32.87.62,1.38-.69,3.82-2.45,4.62S291.75,193.87,291.55,192.3Z" transform="translate(-115.63 -91.76)"/><path class="cls-13" d="M278,178c0-1.45,1.67-3.33,3-4,.94-.45,2.3-.58,2.59.45.35,1.23-1,3.66-2.49,4.6S278,179.39,278,178Z" transform="translate(-115.63 -91.76)"/><path class="cls-13" d="M288.46,189.44c-.15-1.38,1.05-3.57,2.12-4.52.75-.65,1.86-1.09,2.21-.18.41,1.09-.44,3.73-1.61,5S288.6,190.82,288.46,189.44Z" transform="translate(-115.63 -91.76)"/><path class="cls-13" d="M283.55,183.38c.26-1.36,2-3.12,3.34-3.71.9-.41,2.09-.51,2.16.45.09,1.17-1.48,3.45-3,4.31S283.3,184.75,283.55,183.38Z" transform="translate(-115.63 -91.76)"/><path class="cls-13" d="M299.8,191.12c-.9-1-.42-3.18.53-4.31.66-.78,1.93-1.53,2.85-.94,1.11.71,1.32,3.09.4,4.49S300.7,192.16,299.8,191.12Z" transform="translate(-115.63 -91.76)"/><path class="cls-13" d="M294,185.33c-.29-1.34,1.16-3,2.54-3.53.95-.36,2.41-.41,2.94.55.64,1.16-.32,3.34-1.8,4.13S294.25,186.67,294,185.33Z" transform="translate(-115.63 -91.76)"/><path class="cls-13" d="M290.45,181.18c-.17-1.28,1.2-3,2.43-3.58.85-.41,2.13-.55,2.54.35.48,1.09-.49,3.27-1.83,4.12S290.63,182.46,290.45,181.18Z" transform="translate(-115.63 -91.76)"/><path class="cls-13" d="M284.74,177.37c-.17-1.28,1.2-3,2.43-3.58.85-.41,2.13-.55,2.54.35.48,1.09-.49,3.27-1.83,4.12S284.92,178.65,284.74,177.37Z" transform="translate(-115.63 -91.76)"/><path class="cls-13" d="M282,169.75c.39-1.24,2.35-2.19,3.72-2.21.95,0,2.17.42,2.15,1.4,0,1.19-1.83,2.75-3.41,2.95S281.65,171,282,169.75Z" transform="translate(-115.63 -91.76)"/><path class="cls-13" d="M285.88,164.15c.39-1.24,2.35-2.19,3.72-2.21.95,0,2.16.42,2.14,1.4,0,1.19-1.83,2.75-3.4,2.95S285.49,165.38,285.88,164.15Z" transform="translate(-115.63 -91.76)"/><path class="cls-13" d="M290.79,158.89c.48-1.14,2.38-2.16,3.65-2.3.88-.09,2,.18,1.86,1.06-.13,1.06-1.94,2.61-3.42,2.93S290.32,160,290.79,158.89Z" transform="translate(-115.63 -91.76)"/><path class="cls-13" d="M289.15,171c-.2-1.57,1.61-3.37,3.24-3.87,1.12-.35,2.8-.28,3.32.87.61,1.38-.69,3.82-2.45,4.62S289.36,172.54,289.15,171Z" transform="translate(-115.63 -91.76)"/><path class="cls-13" d="M292,174.39a5.82,5.82,0,0,1,3.76-2.08c.84-.09,1.84.16,1.61,1-.26,1-2.19,2.37-3.63,2.66S291.38,175.42,292,174.39Z" transform="translate(-115.63 -91.76)"/><path class="cls-13" d="M301.17,183c-.71-1.51.18-4.24,1.36-5.55.81-.9,2.23-1.65,3.05-.71,1,1.13.75,4.28-.45,6S301.88,184.51,301.17,183Z" transform="translate(-115.63 -91.76)"/><path class="cls-13" d="M296.73,178.61c-.14-1.38,1-3.57,2.13-4.51.74-.65,1.85-1.09,2.2-.19.42,1.09-.43,3.73-1.6,5S296.88,180,296.73,178.61Z" transform="translate(-115.63 -91.76)"/><path class="cls-13" d="M302.08,174.07c-.36-1.2.79-2.91,1.95-3.58.8-.45,2.08-.68,2.61.14.65,1,0,3.12-1.26,4S302.44,175.26,302.08,174.07Z" transform="translate(-115.63 -91.76)"/><path class="cls-13" d="M297.26,171c-.35-1.2.79-2.91,1.95-3.57.8-.46,2.08-.68,2.61.14.65,1,0,3.12-1.25,4S297.62,172.21,297.26,171Z" transform="translate(-115.63 -91.76)"/><path class="cls-13" d="M293.05,163.66c.35-1.3,2.34-2.21,3.77-2.15,1,0,2.29.56,2.32,1.61,0,1.26-1.76,2.83-3.4,3S292.71,165,293.05,163.66Z" transform="translate(-115.63 -91.76)"/><path class="cls-13" d="M296.38,154.29c.38-1.31,2.4-2.5,3.83-2.66,1-.11,2.26.2,2.26,1.22,0,1.22-1.84,3-3.47,3.39S296,155.61,296.38,154.29Z" transform="translate(-115.63 -91.76)"/><path class="cls-13" d="M303.12,167.53c-.54-1.22.52-3.08,1.73-3.86.83-.54,2.22-.87,2.92-.06.83,1,.35,3.25-.91,4.29S303.66,168.75,303.12,167.53Z" transform="translate(-115.63 -91.76)"/><path class="cls-13" d="M300,164a7.61,7.61,0,0,1,3.23-3.8c.84-.46,1.94-.64,1.95.28,0,1.11-1.52,3.41-2.92,4.34S299.69,165.36,300,164Z" transform="translate(-115.63 -91.76)"/><path class="cls-13" d="M297.56,159.35a5.82,5.82,0,0,1,3.76-2.08c.84-.08,1.84.16,1.62,1-.27,1-2.2,2.37-3.64,2.66S297,160.38,297.56,159.35Z" transform="translate(-115.63 -91.76)"/><path class="cls-13" d="M306.48,160.93A10.19,10.19,0,0,1,307,156c.35-.84,1-1.59,1.33-.83a9.85,9.85,0,0,1-.15,5.22C307.71,161.9,306.8,162.21,306.48,160.93Z" transform="translate(-115.63 -91.76)"/><path class="cls-13" d="M303.39,156.51a5.89,5.89,0,0,1,1.86-3.88c.63-.56,1.56-.94,1.84-.16.32.93-.43,3.2-1.43,4.27S303.49,157.69,303.39,156.51Z" transform="translate(-115.63 -91.76)"/><path class="cls-13" d="M302.34,150.36a5.55,5.55,0,0,1,2.75-2.45c.66-.25,1.48-.27,1.41.41a5.42,5.42,0,0,1-2.59,2.88C302.82,151.72,302,151.3,302.34,150.36Z" transform="translate(-115.63 -91.76)"/><path class="cls-13" d="M307.31,151a7.8,7.8,0,0,1,0-2.89c.11-.51.34-1,.53-.54a7.64,7.64,0,0,1,.17,3C307.88,151.49,307.51,151.71,307.31,151Z" transform="translate(-115.63 -91.76)"/><path class="cls-13" d="M256.8,171.21a9.63,9.63,0,0,1,3.51-4.39c.89-.56,2-.85,2,.15,0,1.2-1.72,3.83-3.21,4.95S256.43,172.68,256.8,171.21Z" transform="translate(-115.63 -91.76)"/><path class="cls-13" d="M231.25,185.46c-.19-1.41,1.13-3.54,2.32-4.42.83-.61,2.07-1,2.47,0,.49,1.14-.43,3.75-1.73,4.94S231.43,186.88,231.25,185.46Z" transform="translate(-115.63 -91.76)"/><path class="cls-13" d="M223.28,183.34c-.18-1.42,1.13-3.55,2.33-4.43.82-.61,2.07-1,2.47,0,.48,1.13-.44,3.75-1.73,4.93S223.46,184.75,223.28,183.34Z" transform="translate(-115.63 -91.76)"/><path class="cls-13" d="M217.24,185.68c-.7-1.24-.3-3.71.47-5,.53-.87,1.55-1.68,2.28-1,.88.87,1,3.63.27,5.22S218,186.92,217.24,185.68Z" transform="translate(-115.63 -91.76)"/><path class="cls-13" d="M220.35,176.42c.26-1.4,2.17-3,3.58-3.49,1-.33,2.26-.29,2.35.73.11,1.24-1.57,3.44-3.16,4.17S220.09,177.82,220.35,176.42Z" transform="translate(-115.63 -91.76)"/><path class="cls-13" d="M232.89,320.5c1.43,1,.47,3.13-1.21,4.23-1.17.75-3.35,1.47-4.86.88-1.82-.71-2-3-.34-4.41S231.45,319.48,232.89,320.5Z" transform="translate(-115.63 -91.76)"/><path class="cls-13" d="M241.4,311.79c1,.7.69,2.5-.22,3.54-.63.71-1.9,1.49-2.91,1.15-1.23-.42-1.63-2.3-.78-3.56S240.37,311.08,241.4,311.79Z" transform="translate(-115.63 -91.76)"/><path class="cls-13" d="M231,313.55c1.06-.67,2.58.34,3.18,1.59a3.1,3.1,0,0,1-.1,3.13c-.86,1-2.75.59-3.57-.69S230,314.21,231,313.55Z" transform="translate(-115.63 -91.76)"/><path class="cls-13" d="M250.39,296.57c1.08-.85,2.68.2,3.34,1.6a4,4,0,0,1,0,3.62c-.87,1.18-2.84.9-3.73-.51S249.31,297.42,250.39,296.57Z" transform="translate(-115.63 -91.76)"/><path class="cls-13" d="M258.92,286.79c1.07-.85,2.68.2,3.34,1.59a4,4,0,0,1,0,3.62c-.87,1.18-2.85.91-3.73-.51S257.84,287.64,258.92,286.79Z" transform="translate(-115.63 -91.76)"/><path class="cls-13" d="M239.19,303.52c1.07-.85,2.68.2,3.34,1.59a4,4,0,0,1,0,3.62c-.87,1.18-2.84.91-3.73-.51S238.11,304.37,239.19,303.52Z" transform="translate(-115.63 -91.76)"/><path class="cls-13" d="M232.09,306c1-1,2.69-.13,3.51,1.17a4,4,0,0,1,.43,3.6c-.72,1.27-2.72,1.24-3.77-.06S231.12,307,232.09,306Z" transform="translate(-115.63 -91.76)"/><path class="cls-13" d="M243.35,296.49c1.14-.77,2.67.4,3.21,1.84a3.92,3.92,0,0,1-.28,3.61c-.95,1.11-2.9.69-3.68-.79S242.22,297.26,243.35,296.49Z" transform="translate(-115.63 -91.76)"/><path class="cls-13" d="M251.28,290.2c.45-1.16,2.24-1.22,3.45-.55a3.17,3.17,0,0,1,1.75,2.6c-.12,1.29-1.83,2.09-3.23,1.52S250.83,291.35,251.28,290.2Z" transform="translate(-115.63 -91.76)"/><path class="cls-13" d="M244.73,290.31c1-.84,3-.27,4,.73.69.69,1.34,2,.75,2.87-.7,1.08-2.93,1.18-4.2.2S243.73,291.16,244.73,290.31Z" transform="translate(-115.63 -91.76)"/><path class="cls-13" d="M235.34,297.2c1.32,0,2.49,1.68,2.65,3.1.1,1-.22,2.38-1.24,2.7-1.22.39-3-.95-3.38-2.51S234,297.22,235.34,297.2Z" transform="translate(-115.63 -91.76)"/><path class="cls-13" d="M239.45,291.14c1.15.38,2,2.2,2.07,3.48,0,.87-.37,2-1.28,2-1.1,0-2.55-1.72-2.75-3.19S238.31,290.77,239.45,291.14Z" transform="translate(-115.63 -91.76)"/><path class="cls-13" d="M239.27,285.82c1.12-.45,3,.38,3.81,1.34.58.66,1,1.77.29,2.33-.87.68-3.07.32-4.16-.68S238.15,286.26,239.27,285.82Z" transform="translate(-115.63 -91.76)"/><path class="cls-13" d="M246.24,285a4.77,4.77,0,0,1,3.83,1.24c.59.57,1.05,1.5.36,1.95-.84.54-3,.16-4.15-.7S245.14,285.33,246.24,285Z" transform="translate(-115.63 -91.76)"/><path class="cls-13" d="M264.7,284a4.78,4.78,0,0,1,.87,3.93c-.19.8-.76,1.67-1.5,1.3s-1.68-2.54-1.5-3.94S263.86,283.19,264.7,284Z" transform="translate(-115.63 -91.76)"/><path class="cls-13" d="M266.94,281.81a5.21,5.21,0,0,1,3.7,1.56c.55.58.94,1.48.22,1.81-.87.39-3-.2-4.06-1.11S265.83,282,266.94,281.81Z" transform="translate(-115.63 -91.76)"/><path class="cls-13" d="M254.5,284.42a3.62,3.62,0,0,1,2.14,2.42c.17.65.08,1.52-.6,1.57s-2.19-1.07-2.6-2.14S253.59,284.24,254.5,284.42Z" transform="translate(-115.63 -91.76)"/><path class="cls-13" d="M282.45,244.28c1.43-.26,3.19,1.3,3.76,2.75.39,1,.44,2.51-.58,3-1.23.62-3.55-.45-4.39-2S281,244.53,282.45,244.28Z" transform="translate(-115.63 -91.76)"/><path class="cls-13" d="M290.48,246.09c1.36-.12,3.16,1.34,3.81,2.62.44.89.59,2.2-.36,2.57-1.14.45-3.45-.63-4.37-2S289.13,246.21,290.48,246.09Z" transform="translate(-115.63 -91.76)"/><path class="cls-13" d="M223.08,311.67c1.41-.84,3.46.48,4.28,2.09.57,1.1.88,3-.07,4-1.15,1.22-3.69.72-4.81-.93S221.68,312.5,223.08,311.67Z" transform="translate(-115.63 -91.76)"/><path class="cls-13" d="M225.15,303.47c1.41-.84,3.47.48,4.29,2.09.56,1.1.87,3-.08,4-1.15,1.22-3.69.72-4.81-.93S223.75,304.3,225.15,303.47Z" transform="translate(-115.63 -91.76)"/><path class="cls-13" d="M226.86,296.14c1.41-.83,3.47.48,4.29,2.09.56,1.11.87,3-.08,4-1.15,1.22-3.69.72-4.81-.93S225.46,297,226.86,296.14Z" transform="translate(-115.63 -91.76)"/><path class="cls-13" d="M231.63,285c.57-1.09,2.35-1,3.47-.19a3.08,3.08,0,0,1,1.45,2.73c-.25,1.25-2,1.86-3.35,1.16S231.07,286.06,231.63,285Z" transform="translate(-115.63 -91.76)"/><path class="cls-13" d="M229.14,291.23c.57-1.08,2.35-1,3.47-.18a3.09,3.09,0,0,1,1.45,2.73c-.25,1.24-2,1.86-3.35,1.16S228.58,292.32,229.14,291.23Z" transform="translate(-115.63 -91.76)"/><path class="cls-13" d="M219.49,319.48c1.57-.45,3.23,1.34,3.62,3.1.27,1.21.1,3.11-1.07,3.85-1.41.89-3.75-.22-4.42-2.1S217.92,319.94,219.49,319.48Z" transform="translate(-115.63 -91.76)"/><path class="cls-13" d="M225.14,285c.57-1.09,2.35-1,3.47-.19a3.09,3.09,0,0,1,1.45,2.73c-.25,1.25-2,1.86-3.35,1.16S224.58,286.08,225.14,285Z" transform="translate(-115.63 -91.76)"/><path class="cls-13" d="M221.44,289.06c1.52-.58,3.32,1.07,3.86,2.79.36,1.19.34,3.1-.77,3.93-1.33,1-3.75.07-4.57-1.74S219.91,289.64,221.44,289.06Z" transform="translate(-115.63 -91.76)"/><path class="cls-13" d="M219.33,296.62c1.52-.58,3.32,1.07,3.86,2.8.36,1.18.35,3.09-.76,3.92-1.34,1-3.76.08-4.58-1.74S217.8,297.2,219.33,296.62Z" transform="translate(-115.63 -91.76)"/><path class="cls-13" d="M217.7,305.29c1.38-.34,3.16,1.08,3.78,2.48.42,1,.54,2.46-.43,3-1.16.69-3.47-.21-4.36-1.7S216.33,305.64,217.7,305.29Z" transform="translate(-115.63 -91.76)"/><path class="cls-13" d="M223,277.72c.57-1.08,2.35-1,3.47-.18a3.09,3.09,0,0,1,1.45,2.73c-.25,1.24-2,1.86-3.35,1.16S222.47,278.81,223,277.72Z" transform="translate(-115.63 -91.76)"/><path class="cls-13" d="M218.68,272.34c.39-1,1.84-.81,2.79,0a3.73,3.73,0,0,1,1.34,2.77,1.61,1.61,0,0,1-2.65.94A3.88,3.88,0,0,1,218.68,272.34Z" transform="translate(-115.63 -91.76)"/><path class="cls-8" d="M175.7,161.22c-.15,1-9.78,1.61-20.14-1.42a61.09,61.09,0,0,1-14.27-6.26l.24-25.76a59.51,59.51,0,0,1-9.71-7.86c-3.36-3.36-5.61-5.67-6.87-9.55a19.26,19.26,0,0,1-.88-6.75,17.39,17.39,0,0,1,2.54-9.09c.8-1.22,1.7-2.58,3.18-2.75a4.08,4.08,0,0,1,3.38,1.59c2.63,3.27-2.48,7.87-1,12.66,1.51,5,8.19,3.81,16.79,10.74,4,3.23,7.56,6,9.06,10.81.47,1.53.2,1.66,1.36,13a33.48,33.48,0,0,0,.84,5.9,21.45,21.45,0,0,0,5.15,9.39C170,160.55,175.81,160.43,175.7,161.22Z" transform="translate(-115.63 -91.76)"/><path d="M167,138.05" transform="translate(-115.63 -91.76)"/><path class="cls-14" d="M175.44,161.24c0-.75-21.73-5.11-28.42-7.56a5.28,5.28,0,0,1-2.15-1.39c-2-2.21-1.37-5.74-1.06-7.86.76-5.28,1.81-12.6-.87-17.38-1.85-3.29-3.6-2-9.05-7-3.16-2.86-7.35-6.65-8.56-12-1.81-7.95,4-15.36,3.3-15.73-.45-.23-2.74,2.42-4,5.86-2.78,7.7,1.29,15,1.84,15.92a34.85,34.85,0,0,0,9.69,9.69c.91.62,1.74,1.36,2.63,2,1.48,1.08,2.27,1.58,2.68,2.61a3.91,3.91,0,0,1,.21,1.85c-.34,3.73-.32,9.74-.31,12.54,0,3.73.35,4.07,0,6.44a7.58,7.58,0,0,0-.12,3c.52,2,2.46,3.25,3.76,4,8.37,4.6,18.31,5.37,18.31,5.37C169.85,162.12,175.43,161.65,175.44,161.24Z" transform="translate(-115.63 -91.76)"/><path class="cls-8" d="M249.3,161.39c.15,1,9.78,1.61,20.14-1.41a61.05,61.05,0,0,0,14.27-6.27L283.47,128a59,59,0,0,0,9.71-7.86c3.35-3.36,5.61-5.67,6.87-9.55a19.48,19.48,0,0,0,.88-6.75,17.44,17.44,0,0,0-2.54-9.08c-.8-1.23-1.7-2.58-3.18-2.76a4.14,4.14,0,0,0-3.38,1.59c-2.64,3.27,2.48,7.88,1,12.67-1.51,5-8.19,3.81-16.79,10.73-4,3.24-7.56,6-9.06,10.82-.48,1.52-.21,1.66-1.36,13a33.12,33.12,0,0,1-.84,5.89,21.62,21.62,0,0,1-5.15,9.39C255,160.73,249.19,160.61,249.3,161.39Z" transform="translate(-115.63 -91.76)"/><path class="cls-14" d="M249.55,161.42c0-.76,21.74-5.11,28.42-7.57a5.3,5.3,0,0,0,2.16-1.39c2-2.2,1.37-5.73,1.06-7.85-.76-5.29-1.81-12.61.87-17.39,1.85-3.29,3.59-2,9.05-7,3.16-2.85,7.35-6.65,8.55-11.94,1.82-8-4-15.36-3.29-15.74.45-.22,2.73,2.43,4,5.86,2.77,7.7-1.29,15-1.84,15.92a34.71,34.71,0,0,1-9.69,9.69c-.91.63-1.74,1.36-2.63,2-1.48,1.08-2.27,1.58-2.68,2.61a3.92,3.92,0,0,0-.21,1.85c.34,3.73.32,9.74.3,12.55,0,3.73-.34,4.07,0,6.43a7.22,7.22,0,0,1,.12,3c-.51,2.05-2.45,3.26-3.75,4-8.37,4.61-18.31,5.37-18.31,5.37C255.15,162.3,249.57,161.82,249.55,161.42Z" transform="translate(-115.63 -91.76)"/></svg>